<?xml version="1.0" standalone="no"?>
<!DOCTYPE svg PUBLIC "-//W3C//DTD SVG 1.1//EN" "http://www.w3.org/Graphics/SVG/1.1/DTD/svg11.dtd" >
<svg xmlns="http://www.w3.org/2000/svg" xmlns:xlink="http://www.w3.org/1999/xlink" version="1.1">
<metadata>
Created by FontForge 20170924 at Wed Mar  9 14:12:33 2016
 By www-data
\(c\)2013-2015 Orkney is a trademark of Samuel Oakes and Alfredo Marco Pradil. All rights reserved.
</metadata>
<defs>
<font id="Orkney-Medium" horiz-adv-x="0" >
  <font-face 
    font-family="Orkney Medium"
    font-weight="500"
    font-stretch="normal"
    units-per-em="1000"
    panose-1="0 0 6 0 0 0 0 0 0 0"
    ascent="750"
    descent="-250"
    x-height="500"
    cap-height="750"
    bbox="-755 -353 1152 1022"
    underline-thickness="43"
    underline-position="-100"
    stemh="102"
    stemv="115"
    unicode-range="U+0020-FB02"
  />
<missing-glyph horiz-adv-x="605" 
d="M87 0v750h431v-750h-431zM172 85h261v580h-261v-580z" />
    <glyph glyph-name="fi" unicode="fi" horiz-adv-x="616" 
d="M370 668c-82 0 -138 -48 -138 -126v-42h308v-500h-111v415h-197v-415h-111v415h-84v85h84v48c0 128 96 212 237 212c69 0 138 -20 184 -42v-101c-50 28 -113 51 -172 51z" />
    <glyph glyph-name="fl" unicode="fl" horiz-adv-x="719" 
d="M678 109l61 -75c-27 -28 -67 -44 -119 -44c-107 0 -174 69 -174 170v497c-25 7 -51 11 -77 11c-80 0 -137 -48 -137 -126v-42h127v-85h-127v-415h-111v415h-84v85h84v48c0 128 97 212 235 212c33 0 65 -4 95 -10h106v-41c0 -1 1 -1 1 -1v-104s-1 0 -1 1l1 -445
c0 -51 24 -75 65 -75c22 0 39 6 55 24z" />
    <glyph glyph-name=".notdef" horiz-adv-x="605" 
d="M87 0v750h431v-750h-431zM172 85h261v580h-261v-580z" />
    <glyph glyph-name="A" unicode="A" horiz-adv-x="762" 
d="M621 0l-57 151h-366l-58 -151h-125l301 750h129l301 -750h-125zM234 247h293l-146 385z" />
    <glyph glyph-name="Aacute" unicode="&#xc1;" horiz-adv-x="762" 
d="M539 1000l-113 -160h-87l87 160h113zM621 0l-57 151h-366l-58 -151h-125l301 750h129l301 -750h-125zM234 247h293l-146 385z" />
    <glyph glyph-name="Abreve" unicode="&#x102;" horiz-adv-x="762" 
d="M380 812c-99 0 -171 58 -171 162h66c0 -51 43 -96 105 -96c64 0 107 45 107 96h65c0 -104 -71 -162 -172 -162zM621 0l-57 151h-366l-58 -151h-125l301 750h129l301 -750h-125zM234 247h293l-146 385z" />
    <glyph glyph-name="uni01CD" unicode="&#x1cd;" horiz-adv-x="762" 
d="M439 829h-117l-103 171h84l78 -119l78 119h84zM621 0l-57 151h-366l-58 -151h-125l301 750h129l301 -750h-125zM234 247h293l-146 385z" />
    <glyph glyph-name="Acircumflex" unicode="&#xc2;" horiz-adv-x="762" 
d="M381 949l-75 -120h-87l103 171h117l104 -171h-88zM621 0l-57 151h-366l-58 -151h-125l301 750h129l301 -750h-125zM234 247h293l-146 385z" />
    <glyph glyph-name="Adieresis" unicode="&#xc4;" horiz-adv-x="762" 
d="M281 840c-37 0 -68 30 -68 67c0 38 31 68 68 68s68 -30 68 -68c0 -37 -31 -67 -68 -67zM481 840c-37 0 -68 30 -68 67c0 38 31 68 68 68s67 -30 67 -68c0 -37 -30 -67 -67 -67zM621 0l-57 151h-366l-58 -151h-125l301 750h129l301 -750h-125zM234 247h293l-146 385z" />
    <glyph glyph-name="uni1EA0" unicode="&#x1ea0;" horiz-adv-x="762" 
d="M746 0h-125l-57 151h-366l-58 -151h-125l301 750h129zM234 247h293l-146 385zM381 -60c37 0 68 -31 68 -68s-31 -68 -68 -68s-68 31 -68 68s31 68 68 68z" />
    <glyph glyph-name="Agrave" unicode="&#xc0;" horiz-adv-x="762" 
d="M419 840h-86l-114 160h113zM621 0l-57 151h-366l-58 -151h-125l301 750h129l301 -750h-125zM234 247h293l-146 385z" />
    <glyph glyph-name="Amacron" unicode="&#x100;" horiz-adv-x="762" 
d="M536 916v-72h-310v72h310zM621 0l-57 151h-366l-58 -151h-125l301 750h129l301 -750h-125zM234 247h293l-146 385z" />
    <glyph glyph-name="Aogonek" unicode="&#x104;" horiz-adv-x="762" 
d="M763 -153l36 -51c-40 -40 -93 -58 -147 -55c-69 4 -120 40 -120 108c0 63 43 116 117 151h-28l-57 151h-366l-58 -151h-125l301 750h129l301 -750c-70 0 -138 -73 -138 -142c0 -34 22 -60 63 -60c36 0 72 20 92 49zM234 247h293l-146 385z" />
    <glyph glyph-name="Aring" unicode="&#xc5;" horiz-adv-x="762" 
d="M621 0l-57 151h-366l-58 -151h-125l294 732c-22 20 -36 49 -36 80c0 59 49 108 109 108c59 0 107 -49 107 -108c0 -32 -14 -61 -36 -81l293 -731h-125zM382 873c-33 0 -59 -28 -59 -61c0 -35 26 -60 59 -60s59 25 59 60c0 33 -26 61 -59 61zM234 247h293l-146 385z" />
    <glyph glyph-name="Atilde" unicode="&#xc3;" horiz-adv-x="762" 
d="M284 837h-68c-14 81 31 138 96 138c43 0 75 -23 97 -56c10 -17 21 -25 38 -25c28 0 41 29 31 72h67c15 -79 -27 -138 -96 -138c-39 0 -70 17 -96 56c-11 17 -22 25 -38 25c-28 0 -42 -30 -31 -72zM621 0l-57 151h-366l-58 -151h-125l301 750h129l301 -750h-125zM234 247
h293l-146 385z" />
    <glyph glyph-name="AE" unicode="&#xc6;" horiz-adv-x="915" 
d="M15 0l301 750h554v-98h-314v-233h272v-88h-272v-233h314v-98h-426v161h-242l-58 -161h-129zM240 249h205v403h-49z" />
    <glyph glyph-name="B" unicode="B" horiz-adv-x="648" 
d="M454 386c85 -23 146 -86 146 -185c0 -123 -94 -201 -212 -201h-318v750h261c119 0 214 -80 214 -203c0 -76 -36 -130 -91 -161zM430 536c0 62 -50 113 -112 113h-134v-227h134c62 0 112 52 112 114zM372 101c63 0 113 52 113 114c0 61 -50 113 -113 113h-188v-227h188z
" />
    <glyph glyph-name="uni1E04" unicode="&#x1e04;" horiz-adv-x="648" 
d="M454 386c85 -23 146 -86 146 -185c0 -123 -94 -201 -212 -201h-318v750h261c119 0 214 -80 214 -203c0 -76 -36 -130 -91 -161zM430 536c0 62 -50 113 -112 113h-134v-227h134c62 0 112 52 112 114zM372 101c63 0 113 52 113 114c0 61 -50 113 -113 113h-188v-227h188z
M317 -60c37 0 68 -31 68 -68s-31 -68 -68 -68s-68 31 -68 68s31 68 68 68z" />
    <glyph glyph-name="C" unicode="C" horiz-adv-x="654" 
d="M415 -10c-213 0 -366 172 -366 385s153 385 366 385c71 0 138 -23 192 -62v-137c-53 60 -119 90 -192 90c-155 0 -258 -121 -258 -276s103 -276 258 -276c73 0 140 30 192 90v-137c-54 -39 -121 -62 -192 -62z" />
    <glyph glyph-name="Cacute" unicode="&#x106;" horiz-adv-x="654" 
d="M373 840l87 160h113l-113 -160h-87zM415 -10c-213 0 -366 172 -366 385s153 385 366 385c71 0 138 -23 192 -62v-137c-53 60 -119 90 -192 90c-155 0 -258 -121 -258 -276s103 -276 258 -276c73 0 140 30 192 90v-137c-54 -39 -121 -62 -192 -62z" />
    <glyph glyph-name="Ccaron" unicode="&#x10c;" horiz-adv-x="654" 
d="M356 829l-103 171h84l78 -119l78 119h84l-104 -171h-117zM415 -10c-213 0 -366 172 -366 385s153 385 366 385c71 0 138 -23 192 -62v-137c-53 60 -119 90 -192 90c-155 0 -258 -121 -258 -276s103 -276 258 -276c73 0 140 30 192 90v-137c-54 -39 -121 -62 -192 -62z
" />
    <glyph glyph-name="Ccedilla" unicode="&#xc7;" horiz-adv-x="654" 
d="M415 651c-155 0 -258 -121 -258 -276s103 -276 258 -276c73 0 140 30 192 90v-137c-48 -35 -107 -57 -170 -61l-28 -55c68 13 122 -28 122 -91c0 -58 -46 -105 -105 -105c-47 0 -98 30 -116 68l50 19c13 -19 42 -34 66 -34c29 0 51 23 51 52c0 43 -41 61 -93 39l-43 27
l42 80c-196 16 -334 182 -334 384c0 213 153 385 366 385c71 0 138 -23 192 -62v-137c-53 60 -119 90 -192 90z" />
    <glyph glyph-name="Cdotaccent" unicode="&#x10a;" horiz-adv-x="654" 
d="M415 840c-37 0 -68 30 -68 67c0 38 31 68 68 68s68 -30 68 -68c0 -37 -31 -67 -68 -67zM415 -10c-213 0 -366 172 -366 385s153 385 366 385c71 0 138 -23 192 -62v-137c-53 60 -119 90 -192 90c-155 0 -258 -121 -258 -276s103 -276 258 -276c73 0 140 30 192 90v-137
c-54 -39 -121 -62 -192 -62z" />
    <glyph glyph-name="D" unicode="D" horiz-adv-x="716" 
d="M70 0v750h222c207 0 375 -168 375 -375s-168 -375 -375 -375h-222zM184 101h107c146 0 261 121 261 274s-115 274 -261 274h-107v-548z" />
    <glyph glyph-name="Eth" unicode="&#xd0;" horiz-adv-x="716" 
d="M292 750c207 0 375 -168 375 -375s-168 -375 -375 -375h-222v336h-75v78h75v336h222zM291 101c146 0 261 121 261 274s-115 274 -261 274h-107v-235h126v-78h-126v-235h107z" />
    <glyph glyph-name="Dcaron" unicode="&#x10e;" horiz-adv-x="716" 
d="M232 829l-103 171h84l78 -119l78 119h84l-104 -171h-117zM70 0v750h222c207 0 375 -168 375 -375s-168 -375 -375 -375h-222zM184 101h107c146 0 261 121 261 274s-115 274 -261 274h-107v-548z" />
    <glyph glyph-name="Dcroat" unicode="&#x110;" horiz-adv-x="716" 
d="M292 750c207 0 375 -168 375 -375s-168 -375 -375 -375h-222v336h-75v78h75v336h222zM291 101c146 0 261 121 261 274s-115 274 -261 274h-107v-235h126v-78h-126v-235h107z" />
    <glyph glyph-name="E" unicode="E" horiz-adv-x="542" 
d="M497 649h-312v-223h270v-102h-270v-223h312v-101h-427v750h427v-101z" />
    <glyph glyph-name="Eacute" unicode="&#xc9;" horiz-adv-x="542" 
d="M441 1000l-113 -160h-87l87 160h113zM497 649h-312v-223h270v-102h-270v-223h312v-101h-427v750h427v-101z" />
    <glyph glyph-name="Ecaron" unicode="&#x11a;" horiz-adv-x="542" 
d="M341 829h-117l-103 171h84l78 -119l78 119h84zM497 649h-312v-223h270v-102h-270v-223h312v-101h-427v750h427v-101z" />
    <glyph glyph-name="uni0228" unicode="&#x228;" horiz-adv-x="542" 
d="M497 649h-312v-223h270v-102h-270v-223h312v-101h-187l-33 -64c68 13 122 -28 122 -91c0 -58 -46 -105 -105 -105c-47 0 -98 30 -116 68l50 19c13 -19 42 -34 66 -34c29 0 51 23 51 52c0 43 -41 61 -93 39l-43 27l47 89h-186v750h427v-101z" />
    <glyph glyph-name="Ecircumflex" unicode="&#xca;" horiz-adv-x="542" 
d="M283 949l-75 -120h-87l103 171h117l104 -171h-88zM497 649h-312v-223h270v-102h-270v-223h312v-101h-427v750h427v-101z" />
    <glyph glyph-name="Edieresis" unicode="&#xcb;" horiz-adv-x="542" 
d="M183 840c-37 0 -68 30 -68 67c0 38 31 68 68 68s68 -30 68 -68c0 -37 -31 -67 -68 -67zM383 840c-37 0 -68 30 -68 67c0 38 31 68 68 68s67 -30 67 -68c0 -37 -30 -67 -67 -67zM497 649h-312v-223h270v-102h-270v-223h312v-101h-427v750h427v-101z" />
    <glyph glyph-name="Edotaccent" unicode="&#x116;" horiz-adv-x="542" 
d="M283 840c-37 0 -68 30 -68 67c0 38 31 68 68 68s68 -30 68 -68c0 -37 -31 -67 -68 -67zM497 649h-312v-223h270v-102h-270v-223h312v-101h-427v750h427v-101z" />
    <glyph glyph-name="uni1EB8" unicode="&#x1eb8;" horiz-adv-x="542" 
d="M497 649h-312v-223h270v-102h-270v-223h312v-101h-427v750h427v-101zM283 -60c37 0 68 -31 68 -68s-31 -68 -68 -68s-68 31 -68 68s31 68 68 68z" />
    <glyph glyph-name="Egrave" unicode="&#xc8;" horiz-adv-x="542" 
d="M321 840h-86l-114 160h113zM497 649h-312v-223h270v-102h-270v-223h312v-101h-427v750h427v-101z" />
    <glyph glyph-name="Emacron" unicode="&#x112;" horiz-adv-x="542" 
d="M438 916v-72h-310v72h310zM497 649h-312v-223h270v-102h-270v-223h312v-101h-427v750h427v-101z" />
    <glyph glyph-name="Eogonek" unicode="&#x118;" horiz-adv-x="542" 
d="M514 -153l36 -51c-40 -40 -93 -58 -147 -55c-69 4 -120 40 -120 108c0 63 43 116 117 151h-330v750h427v-101h-312v-223h270v-102h-270v-223h312v-101c-70 0 -138 -73 -138 -142c0 -34 22 -60 63 -60c36 0 72 20 92 49z" />
    <glyph glyph-name="uni1EBC" unicode="&#x1ebc;" horiz-adv-x="542" 
d="M186 837h-68c-14 81 31 138 96 138c43 0 75 -23 97 -56c10 -17 21 -25 38 -25c28 0 41 29 31 72h67c15 -79 -27 -138 -96 -138c-39 0 -70 17 -96 56c-11 17 -22 25 -38 25c-28 0 -42 -30 -31 -72zM497 649h-312v-223h270v-102h-270v-223h312v-101h-427v750h427v-101z" />
    <glyph glyph-name="F" unicode="F" horiz-adv-x="540" 
d="M497 649h-312v-223h270v-102h-270v-324h-115v750h427v-101z" />
    <glyph glyph-name="G" unicode="G" horiz-adv-x="744" 
d="M455 651c-154 0 -279 -102 -279 -280s125 -280 279 -280c41 0 81 9 117 25v196h-154v102h256v-367c-63 -39 -140 -65 -220 -65c-212 0 -385 150 -385 389s174 389 382 389c82 0 160 -26 223 -65v-145c-51 63 -134 101 -219 101z" />
    <glyph glyph-name="Gbreve" unicode="&#x11e;" horiz-adv-x="744" 
d="M457 812c-99 0 -171 58 -171 162h66c0 -51 43 -96 105 -96c64 0 107 45 107 96h65c0 -104 -71 -162 -172 -162zM455 651c-154 0 -279 -102 -279 -280s125 -280 279 -280c41 0 81 9 117 25v196h-154v102h256v-367c-63 -39 -140 -65 -220 -65c-212 0 -385 150 -385 389
s174 389 382 389c82 0 160 -26 223 -65v-145c-51 63 -134 101 -219 101z" />
    <glyph glyph-name="Gcaron" unicode="&#x1e6;" horiz-adv-x="744" 
d="M516 829h-117l-103 171h84l78 -119l78 119h84zM455 651c-154 0 -279 -102 -279 -280s125 -280 279 -280c41 0 81 9 117 25v196h-154v102h256v-367c-63 -39 -140 -65 -220 -65c-212 0 -385 150 -385 389s174 389 382 389c82 0 160 -26 223 -65v-145
c-51 63 -134 101 -219 101z" />
    <glyph glyph-name="Gcommaaccent" unicode="&#x122;" horiz-adv-x="744" 
d="M455 651c-154 0 -279 -102 -279 -280s125 -280 279 -280c41 0 81 9 117 25v196h-154v102h256v-367c-63 -39 -140 -65 -220 -65c-212 0 -385 150 -385 389s174 389 382 389c82 0 160 -26 223 -65v-145c-51 63 -134 101 -219 101zM449 -40c39 0 68 -31 68 -75
c0 -102 -47 -190 -126 -186v40c58 1 70 85 57 85c-39 0 -67 28 -67 68c0 39 28 68 68 68z" />
    <glyph glyph-name="Gdotaccent" unicode="&#x120;" horiz-adv-x="744" 
d="M458 840c-37 0 -68 30 -68 67c0 38 31 68 68 68s68 -30 68 -68c0 -37 -31 -67 -68 -67zM455 651c-154 0 -279 -102 -279 -280s125 -280 279 -280c41 0 81 9 117 25v196h-154v102h256v-367c-63 -39 -140 -65 -220 -65c-212 0 -385 150 -385 389s174 389 382 389
c82 0 160 -26 223 -65v-145c-51 63 -134 101 -219 101z" />
    <glyph glyph-name="H" unicode="H" horiz-adv-x="738" 
d="M553 750h115v-750h-115v324h-368v-324h-115v750h115v-324h368v324z" />
    <glyph glyph-name="Hbar" unicode="&#x126;" horiz-adv-x="738" 
d="M732 610v-46h-64v-564h-115v324h-368v-324h-115v564h-65v46h65v140h115v-140h368v140h115v-140h64zM553 426v138h-368v-138h368z" />
    <glyph glyph-name="uni1E24" unicode="&#x1e24;" horiz-adv-x="738" 
d="M553 750h115v-750h-115v324h-368v-324h-115v750h115v-324h368v324zM371 -60c37 0 68 -31 68 -68s-31 -68 -68 -68s-68 31 -68 68s31 68 68 68z" />
    <glyph glyph-name="I" unicode="I" horiz-adv-x="255" 
d="M70 0v750h115v-750h-115z" />
    <glyph glyph-name="IJ" unicode="&#x132;" horiz-adv-x="637" 
d="M70 0v750h115v-750h-115zM374 -10c-27 0 -55 4 -72 10v117c20 -7 45 -12 72 -12c39 0 72 32 72 72v573h115v-573c0 -104 -84 -187 -187 -187z" />
    <glyph glyph-name="Iacute" unicode="&#xcd;" horiz-adv-x="255" 
d="M85 840l87 160h113l-113 -160h-87zM70 0v750h115v-750h-115z" />
    <glyph glyph-name="uni01CF" unicode="&#x1cf;" horiz-adv-x="255" 
d="M68 829l-103 171h84l78 -119l78 119h84l-104 -171h-117zM70 0v750h115v-750h-115z" />
    <glyph glyph-name="Icircumflex" unicode="&#xce;" horiz-adv-x="255" 
d="M-35 829l103 171h117l104 -171h-88l-74 120l-75 -120h-87zM70 0v750h115v-750h-115z" />
    <glyph glyph-name="Idieresis" unicode="&#xcf;" horiz-adv-x="255" 
d="M27 840c-37 0 -68 30 -68 67c0 38 31 68 68 68s68 -30 68 -68c0 -37 -31 -67 -68 -67zM227 840c-37 0 -68 30 -68 67c0 38 31 68 68 68s67 -30 67 -68c0 -37 -30 -67 -67 -67zM70 0v750h115v-750h-115z" />
    <glyph glyph-name="Idotaccent" unicode="&#x130;" horiz-adv-x="255" 
d="M127 840c-37 0 -68 30 -68 67c0 38 31 68 68 68s68 -30 68 -68c0 -37 -31 -67 -68 -67zM70 0v750h115v-750h-115z" />
    <glyph glyph-name="uni1ECA" unicode="&#x1eca;" horiz-adv-x="255" 
d="M70 0v750h115v-750h-115zM127 -196c-37 0 -68 31 -68 68s31 68 68 68s68 -31 68 -68s-31 -68 -68 -68z" />
    <glyph glyph-name="Igrave" unicode="&#xcc;" horiz-adv-x="255" 
d="M79 840l-114 160h113l87 -160h-86zM70 0v750h115v-750h-115z" />
    <glyph glyph-name="Imacron" unicode="&#x12a;" horiz-adv-x="255" 
d="M-28 844v72h310v-72h-310zM70 0v750h115v-750h-115z" />
    <glyph glyph-name="Iogonek" unicode="&#x12e;" horiz-adv-x="255" 
d="M190 -153l36 -51c-40 -40 -93 -58 -147 -55c-69 4 -120 40 -120 108c0 63 43 116 117 151h-6v750h115v-750h-12c-70 0 -138 -73 -138 -142c0 -34 22 -60 63 -60c36 0 72 20 92 49z" />
    <glyph glyph-name="Itilde" unicode="&#x128;" horiz-adv-x="255" 
d="M195 828c-39 0 -70 17 -96 56c-11 17 -22 25 -38 25c-28 0 -42 -30 -31 -72h-68c-14 81 31 138 96 138c43 0 75 -23 97 -56c10 -17 21 -25 38 -25c28 0 41 29 31 72h67c15 -79 -27 -138 -96 -138zM70 0v750h115v-750h-115z" />
    <glyph glyph-name="J" unicode="J" horiz-adv-x="382" 
d="M119 -10c-27 0 -55 4 -72 10v117c20 -7 45 -12 72 -12c39 0 72 32 72 72v573h115v-573c0 -104 -84 -187 -187 -187z" />
    <glyph glyph-name="K" unicode="K" horiz-adv-x="660" 
d="M627 750l-325 -334l325 -306v-150l-442 421v-381h-115v750h115v-307l294 307h148z" />
    <glyph glyph-name="Kcommaaccent" unicode="&#x136;" horiz-adv-x="660" 
d="M627 750l-325 -334l325 -306v-150l-442 421v-381h-115v750h115v-307l294 307h148zM331 -40c39 0 68 -31 68 -75c0 -102 -47 -190 -126 -186v40c58 1 70 85 57 85c-39 0 -67 28 -67 68c0 39 28 68 68 68z" />
    <glyph glyph-name="L" unicode="L" horiz-adv-x="497" 
d="M70 0v750h115v-649h266v-101h-381z" />
    <glyph glyph-name="Lacute" unicode="&#x139;" horiz-adv-x="497" 
d="M85 840l87 160h113l-113 -160h-87zM70 0v750h115v-649h266v-101h-381z" />
    <glyph glyph-name="Lcaron" unicode="&#x13d;" horiz-adv-x="513" 
d="M333 449v52c42 1 67 65 67 99c0 13 -3 21 -10 21c-37 0 -67 30 -67 68s30 67 68 67c52 0 76 -51 76 -111c0 -88 -49 -195 -134 -196zM70 0v750h115v-649h266v-101h-381z" />
    <glyph glyph-name="Lcommaaccent" unicode="&#x13b;" horiz-adv-x="497" 
d="M70 0v750h115v-649h266v-101h-381zM204 -301v40c58 1 70 85 57 85c-39 0 -67 28 -67 68c0 39 28 68 68 68c39 0 68 -31 68 -75c0 -102 -47 -190 -126 -186z" />
    <glyph glyph-name="uni1E36" unicode="&#x1e36;" horiz-adv-x="497" 
d="M70 0v750h115v-649h266v-101h-381zM261 -196c-37 0 -68 31 -68 68s31 68 68 68s68 -31 68 -68s-31 -68 -68 -68z" />
    <glyph glyph-name="Lslash" unicode="&#x141;" horiz-adv-x="497" 
d="M185 101h266v-101h-381v276l-45 -47h-78l123 131v390h115v-268l37 39h85l-122 -126v-294z" />
    <glyph glyph-name="M" unicode="M" horiz-adv-x="920" 
d="M728 750h122v-750h-114v586l-277 -418l-274 418v-586h-115v750h123l267 -397z" />
    <glyph glyph-name="N" unicode="N" horiz-adv-x="792" 
d="M608 750h114v-750h-114l-423 571v-571h-115v750h114l424 -571v571z" />
    <glyph glyph-name="Nacute" unicode="&#x143;" horiz-adv-x="792" 
d="M554 1000l-113 -160h-87l87 160h113zM608 750h114v-750h-114l-423 571v-571h-115v750h114l424 -571v571z" />
    <glyph glyph-name="Ncaron" unicode="&#x147;" horiz-adv-x="792" 
d="M454 829h-117l-103 171h84l78 -119l78 119h84zM608 750h114v-750h-114l-423 571v-571h-115v750h114l424 -571v571z" />
    <glyph glyph-name="Ncommaaccent" unicode="&#x145;" horiz-adv-x="792" 
d="M608 750h114v-750h-114l-423 571v-571h-115v750h114l424 -571v571zM398 -40c39 0 68 -31 68 -75c0 -102 -47 -190 -126 -186v40c58 1 70 85 57 85c-39 0 -67 28 -67 68c0 39 28 68 68 68z" />
    <glyph glyph-name="uni1E44" unicode="&#x1e44;" horiz-adv-x="792" 
d="M396 840c-37 0 -68 30 -68 67c0 38 31 68 68 68s68 -30 68 -68c0 -37 -31 -67 -68 -67zM608 750h114v-750h-114l-423 571v-571h-115v750h114l424 -571v571z" />
    <glyph glyph-name="uni1E46" unicode="&#x1e46;" horiz-adv-x="792" 
d="M608 750h114v-750h-114l-423 571v-571h-115v750h114l424 -571v571zM397 -60c37 0 68 -31 68 -68s-31 -68 -68 -68s-68 31 -68 68s31 68 68 68z" />
    <glyph glyph-name="Eng" unicode="&#x14a;" horiz-adv-x="823" 
d="M624 750h111v-815c0 -108 -83 -150 -186 -149v75c39 -1 72 9 72 74v72l-423 558v-565h-111v750h110l427 -564v564z" />
    <glyph glyph-name="Ntilde" unicode="&#xd1;" horiz-adv-x="792" 
d="M299 837h-68c-14 81 31 138 96 138c43 0 75 -23 97 -56c10 -17 21 -25 38 -25c28 0 41 29 31 72h67c15 -79 -27 -138 -96 -138c-39 0 -70 17 -96 56c-11 17 -22 25 -38 25c-28 0 -42 -30 -31 -72zM608 750h114v-750h-114l-423 571v-571h-115v750h114l424 -571v571z" />
    <glyph glyph-name="O" unicode="O" horiz-adv-x="830" 
d="M415 -10c-213 0 -366 172 -366 385s153 385 366 385c212 0 366 -172 366 -385s-154 -385 -366 -385zM415 99c155 0 257 121 257 276s-102 276 -257 276c-154 0 -258 -121 -258 -276s104 -276 258 -276z" />
    <glyph glyph-name="Oacute" unicode="&#xd3;" horiz-adv-x="830" 
d="M373 840l87 160h113l-113 -160h-87zM415 -10c-213 0 -366 172 -366 385s153 385 366 385c212 0 366 -172 366 -385s-154 -385 -366 -385zM415 99c155 0 257 121 257 276s-102 276 -257 276c-154 0 -258 -121 -258 -276s104 -276 258 -276z" />
    <glyph glyph-name="uni01D1" unicode="&#x1d1;" horiz-adv-x="830" 
d="M356 829l-103 171h84l78 -119l78 119h84l-104 -171h-117zM415 -10c-213 0 -366 172 -366 385s153 385 366 385c212 0 366 -172 366 -385s-154 -385 -366 -385zM415 99c155 0 257 121 257 276s-102 276 -257 276c-154 0 -258 -121 -258 -276s104 -276 258 -276z" />
    <glyph glyph-name="Ocircumflex" unicode="&#xd4;" horiz-adv-x="830" 
d="M253 829l103 171h117l104 -171h-88l-74 120l-75 -120h-87zM415 -10c-213 0 -366 172 -366 385s153 385 366 385c212 0 366 -172 366 -385s-154 -385 -366 -385zM415 99c155 0 257 121 257 276s-102 276 -257 276c-154 0 -258 -121 -258 -276s104 -276 258 -276z" />
    <glyph glyph-name="Odieresis" unicode="&#xd6;" horiz-adv-x="830" 
d="M315 840c-37 0 -68 30 -68 67c0 38 31 68 68 68s68 -30 68 -68c0 -37 -31 -67 -68 -67zM515 840c-37 0 -68 30 -68 67c0 38 31 68 68 68s67 -30 67 -68c0 -37 -30 -67 -67 -67zM415 -10c-213 0 -366 172 -366 385s153 385 366 385c212 0 366 -172 366 -385
s-154 -385 -366 -385zM415 99c155 0 257 121 257 276s-102 276 -257 276c-154 0 -258 -121 -258 -276s104 -276 258 -276z" />
    <glyph glyph-name="uni1ECC" unicode="&#x1ecc;" horiz-adv-x="830" 
d="M415 -10c-213 0 -366 172 -366 385s153 385 366 385c212 0 366 -172 366 -385s-154 -385 -366 -385zM415 99c155 0 257 121 257 276s-102 276 -257 276c-154 0 -258 -121 -258 -276s104 -276 258 -276zM415 -196c-37 0 -68 31 -68 68s31 68 68 68s68 -31 68 -68
s-31 -68 -68 -68z" />
    <glyph glyph-name="Ograve" unicode="&#xd2;" horiz-adv-x="830" 
d="M367 840l-114 160h113l87 -160h-86zM415 -10c-213 0 -366 172 -366 385s153 385 366 385c212 0 366 -172 366 -385s-154 -385 -366 -385zM415 99c155 0 257 121 257 276s-102 276 -257 276c-154 0 -258 -121 -258 -276s104 -276 258 -276z" />
    <glyph glyph-name="Ohungarumlaut" unicode="&#x150;" horiz-adv-x="830" 
d="M282 824l144 176h106l-170 -176h-80zM468 824l144 176h106l-170 -176h-80zM415 -10c-213 0 -366 172 -366 385s153 385 366 385c212 0 366 -172 366 -385s-154 -385 -366 -385zM415 99c155 0 257 121 257 276s-102 276 -257 276c-154 0 -258 -121 -258 -276
s104 -276 258 -276z" />
    <glyph glyph-name="Omacron" unicode="&#x14c;" horiz-adv-x="830" 
d="M260 844v72h310v-72h-310zM415 -10c-213 0 -366 172 -366 385s153 385 366 385c212 0 366 -172 366 -385s-154 -385 -366 -385zM415 99c155 0 257 121 257 276s-102 276 -257 276c-154 0 -258 -121 -258 -276s104 -276 258 -276z" />
    <glyph glyph-name="Oslash" unicode="&#xd8;" horiz-adv-x="830" 
d="M652 673c80 -71 129 -178 129 -298c0 -213 -154 -385 -366 -385c-69 0 -131 18 -184 49l-41 -61h-77l66 99c-81 70 -130 178 -130 298c0 213 153 385 366 385c69 0 131 -18 185 -50l40 61h77zM157 375c0 -83 30 -157 82 -207l301 452c-36 20 -78 31 -125 31
c-154 0 -258 -121 -258 -276zM415 99c155 0 257 121 257 276c0 83 -29 157 -81 207l-300 -452c36 -20 78 -31 124 -31z" />
    <glyph glyph-name="Oslashacute" unicode="&#x1fe;" horiz-adv-x="830" 
d="M573 1000l-113 -160h-87l87 160h113zM652 673c80 -71 129 -178 129 -298c0 -213 -154 -385 -366 -385c-69 0 -131 18 -184 49l-41 -61h-77l66 99c-81 70 -130 178 -130 298c0 213 153 385 366 385c69 0 131 -18 185 -50l40 61h77zM157 375c0 -83 30 -157 82 -207l301 452
c-36 20 -78 31 -125 31c-154 0 -258 -121 -258 -276zM415 99c155 0 257 121 257 276c0 83 -29 157 -81 207l-300 -452c36 -20 78 -31 124 -31z" />
    <glyph glyph-name="Otilde" unicode="&#xd5;" horiz-adv-x="830" 
d="M483 828c-39 0 -70 17 -96 56c-11 17 -22 25 -38 25c-28 0 -42 -30 -31 -72h-68c-14 81 31 138 96 138c43 0 75 -23 97 -56c10 -17 21 -25 38 -25c28 0 41 29 31 72h67c15 -79 -27 -138 -96 -138zM415 -10c-213 0 -366 172 -366 385s153 385 366 385
c212 0 366 -172 366 -385s-154 -385 -366 -385zM415 99c155 0 257 121 257 276s-102 276 -257 276c-154 0 -258 -121 -258 -276s104 -276 258 -276z" />
    <glyph glyph-name="OE" unicode="&#x152;" horiz-adv-x="1239" 
d="M1152 653h-315v-229h272v-98h-272v-229h315v-97h-408v124c-71 -82 -175 -134 -292 -134c-213 0 -385 172 -385 385s172 385 385 385c117 0 221 -52 292 -134v124h408v-97zM453 100c152 0 274 122 274 275s-122 275 -274 275c-154 0 -275 -122 -275 -275
s121 -275 275 -275z" />
    <glyph glyph-name="P" unicode="P" horiz-adv-x="601" 
d="M359 750c120 0 215 -97 215 -216c0 -120 -95 -213 -215 -213h-174v-321h-115v750h289zM352 416c63 0 117 44 117 117c0 69 -54 116 -117 116h-167v-233h167z" />
    <glyph glyph-name="Thorn" unicode="&#xde;" horiz-adv-x="600" 
d="M357 644c119 0 214 -96 214 -217c0 -118 -95 -211 -214 -211h-176v-216h-111v644v104h111v-104h176zM353 314c65 0 117 52 117 116s-52 115 -117 115h-172v-231h172z" />
    <glyph glyph-name="Q" unicode="Q" horiz-adv-x="824" 
d="M774 108h28v-108h-36c-42 0 -74 19 -106 52l-17 18c-61 -50 -140 -80 -228 -80c-213 0 -366 172 -366 385s153 385 366 385c212 0 366 -172 366 -385c0 -85 -25 -164 -68 -228l21 -22c11 -12 25 -17 40 -17zM415 99c60 0 112 18 153 49l-110 116l72 73l106 -110
c23 43 36 93 36 148c0 155 -102 276 -257 276c-154 0 -258 -121 -258 -276s104 -276 258 -276z" />
    <glyph glyph-name="R" unicode="R" horiz-adv-x="606" 
d="M410 335l186 -335h-129l-173 328h-109v-328h-115v750h289c119 0 215 -96 215 -217c0 -100 -70 -179 -164 -198zM185 422h171c63 0 113 51 113 114s-51 113 -113 113h-171v-227z" />
    <glyph glyph-name="Racute" unicode="&#x154;" horiz-adv-x="606" 
d="M468 1000l-113 -160h-87l87 160h113zM410 335l186 -335h-129l-173 328h-109v-328h-115v750h289c119 0 215 -96 215 -217c0 -100 -70 -179 -164 -198zM185 422h171c63 0 113 51 113 114s-51 113 -113 113h-171v-227z" />
    <glyph glyph-name="Rcaron" unicode="&#x158;" horiz-adv-x="606" 
d="M368 829h-117l-103 171h84l78 -119l78 119h84zM410 335l186 -335h-129l-173 328h-109v-328h-115v750h289c119 0 215 -96 215 -217c0 -100 -70 -179 -164 -198zM185 422h171c63 0 113 51 113 114s-51 113 -113 113h-171v-227z" />
    <glyph glyph-name="Rcommaaccent" unicode="&#x156;" horiz-adv-x="606" 
d="M410 335l186 -335h-129l-173 328h-109v-328h-115v750h289c119 0 215 -96 215 -217c0 -100 -70 -179 -164 -198zM185 422h171c63 0 113 51 113 114s-51 113 -113 113h-171v-227zM311 -40c39 0 68 -31 68 -75c0 -102 -47 -190 -126 -186v40c58 1 70 85 57 85
c-39 0 -67 28 -67 68c0 39 28 68 68 68z" />
    <glyph glyph-name="S" unicode="S" horiz-adv-x="637" 
d="M328 -10c-122 0 -234 59 -291 146l83 83c31 -75 117 -120 212 -120c83 0 142 30 143 101c1 90 -85 125 -177 160c-104 40 -216 81 -216 203c0 124 104 197 239 197c125 0 218 -45 273 -109l-77 -77c-35 53 -97 88 -193 88c-71 0 -125 -30 -125 -90c0 -63 72 -93 154 -126
c110 -44 238 -95 238 -240c0 -150 -115 -216 -263 -216z" />
    <glyph glyph-name="Sacute" unicode="&#x15a;" horiz-adv-x="637" 
d="M299 840l87 160h113l-113 -160h-87zM328 -10c-122 0 -234 59 -291 146l83 83c31 -75 117 -120 212 -120c83 0 142 30 143 101c1 90 -85 125 -177 160c-104 40 -216 81 -216 203c0 124 104 197 239 197c125 0 218 -45 273 -109l-77 -77c-35 53 -97 88 -193 88
c-71 0 -125 -30 -125 -90c0 -63 72 -93 154 -126c110 -44 238 -95 238 -240c0 -150 -115 -216 -263 -216z" />
    <glyph glyph-name="Scaron" unicode="&#x160;" horiz-adv-x="637" 
d="M282 829l-103 171h84l78 -119l78 119h84l-104 -171h-117zM328 -10c-122 0 -234 59 -291 146l83 83c31 -75 117 -120 212 -120c83 0 142 30 143 101c1 90 -85 125 -177 160c-104 40 -216 81 -216 203c0 124 104 197 239 197c125 0 218 -45 273 -109l-77 -77
c-35 53 -97 88 -193 88c-71 0 -125 -30 -125 -90c0 -63 72 -93 154 -126c110 -44 238 -95 238 -240c0 -150 -115 -216 -263 -216z" />
    <glyph glyph-name="Scedilla" unicode="&#x15e;" horiz-adv-x="637" 
d="M353 446c110 -44 238 -95 238 -240c0 -144 -105 -210 -244 -216l-28 -54c68 13 122 -28 122 -91c0 -58 -46 -105 -105 -105c-47 0 -98 30 -116 68l50 19c13 -19 42 -34 66 -34c29 0 51 23 51 52c0 43 -41 61 -93 39l-43 27l43 81c-109 9 -205 65 -257 144l83 83
c31 -75 117 -120 212 -120c83 0 142 30 143 101c1 90 -85 125 -177 160c-104 40 -216 81 -216 203c0 124 104 197 239 197c125 0 218 -45 273 -109l-77 -77c-35 53 -97 88 -193 88c-71 0 -125 -30 -125 -90c0 -63 72 -93 154 -126z" />
    <glyph glyph-name="Scommaaccent" unicode="&#x218;" horiz-adv-x="637" 
d="M328 -10c-122 0 -234 59 -291 146l83 83c31 -75 117 -120 212 -120c83 0 142 30 143 101c1 90 -85 125 -177 160c-104 40 -216 81 -216 203c0 124 104 197 239 197c125 0 218 -45 273 -109l-77 -77c-35 53 -97 88 -193 88c-71 0 -125 -30 -125 -90c0 -63 72 -93 154 -126
c110 -44 238 -95 238 -240c0 -150 -115 -216 -263 -216zM268 -301v40c58 1 70 85 57 85c-39 0 -67 28 -67 68c0 39 28 68 68 68c39 0 68 -31 68 -75c0 -102 -47 -190 -126 -186z" />
    <glyph glyph-name="uni1E62" unicode="&#x1e62;" horiz-adv-x="637" 
d="M328 -10c-122 0 -234 59 -291 146l83 83c31 -75 117 -120 212 -120c83 0 142 30 143 101c1 90 -85 125 -177 160c-104 40 -216 81 -216 203c0 124 104 197 239 197c125 0 218 -45 273 -109l-77 -77c-35 53 -97 88 -193 88c-71 0 -125 -30 -125 -90c0 -63 72 -93 154 -126
c110 -44 238 -95 238 -240c0 -150 -115 -216 -263 -216zM325 -196c-37 0 -68 31 -68 68s31 68 68 68s68 -31 68 -68s-31 -68 -68 -68z" />
    <glyph glyph-name="T" unicode="T" horiz-adv-x="587" 
d="M551 750v-101h-200v-649h-114v649h-200v101h514z" />
    <glyph glyph-name="Tbar" unicode="&#x166;" horiz-adv-x="587" 
d="M551 649h-200v-235h99v-78h-99v-336h-114v336h-102v78h102v235h-200v101h514v-101z" />
    <glyph glyph-name="Tcaron" unicode="&#x164;" horiz-adv-x="587" 
d="M351 829h-117l-103 171h84l78 -119l78 119h84zM551 750v-101h-200v-649h-114v649h-200v101h514z" />
    <glyph glyph-name="uni0162" unicode="&#x162;" horiz-adv-x="587" 
d="M351 0h-31l-33 -64c68 13 122 -28 122 -91c0 -58 -46 -105 -105 -105c-47 0 -98 30 -116 68l50 19c13 -19 42 -34 66 -34c29 0 51 23 51 52c0 43 -41 61 -93 39l-43 27l47 89h-29v649h-200v101h514v-101h-200v-649z" />
    <glyph glyph-name="uni021A" unicode="&#x21a;" horiz-adv-x="587" 
d="M37 750h514v-101h-200v-649h-114v649h-200v101zM294 -40c39 0 68 -31 68 -75c0 -102 -47 -190 -126 -186v40c58 1 70 85 57 85c-39 0 -67 28 -67 68c0 39 28 68 68 68z" />
    <glyph glyph-name="uni1E6C" unicode="&#x1e6c;" horiz-adv-x="587" 
d="M37 750h514v-101h-200v-649h-114v649h-200v101zM293 -60c37 0 68 -31 68 -68s-31 -68 -68 -68s-68 31 -68 68s31 68 68 68z" />
    <glyph glyph-name="U" unicode="U" horiz-adv-x="740" 
d="M370 -10c-164 0 -294 112 -294 254v506h115v-486c0 -96 79 -173 179 -173s179 77 179 173v486h115v-506c0 -142 -130 -254 -294 -254z" />
    <glyph glyph-name="Uacute" unicode="&#xda;" horiz-adv-x="740" 
d="M328 840l87 160h113l-113 -160h-87zM370 -10c-164 0 -294 112 -294 254v506h115v-486c0 -96 79 -173 179 -173s179 77 179 173v486h115v-506c0 -142 -130 -254 -294 -254z" />
    <glyph glyph-name="uni01D3" unicode="&#x1d3;" horiz-adv-x="740" 
d="M311 829l-103 171h84l78 -119l78 119h84l-104 -171h-117zM370 -10c-164 0 -294 112 -294 254v506h115v-486c0 -96 79 -173 179 -173s179 77 179 173v486h115v-506c0 -142 -130 -254 -294 -254z" />
    <glyph glyph-name="Ucircumflex" unicode="&#xdb;" horiz-adv-x="740" 
d="M208 829l103 171h117l104 -171h-88l-74 120l-75 -120h-87zM370 -10c-164 0 -294 112 -294 254v506h115v-486c0 -96 79 -173 179 -173s179 77 179 173v486h115v-506c0 -142 -130 -254 -294 -254z" />
    <glyph glyph-name="Udieresis" unicode="&#xdc;" horiz-adv-x="740" 
d="M270 840c-37 0 -68 30 -68 67c0 38 31 68 68 68s68 -30 68 -68c0 -37 -31 -67 -68 -67zM470 840c-37 0 -68 30 -68 67c0 38 31 68 68 68s67 -30 67 -68c0 -37 -30 -67 -67 -67zM370 -10c-164 0 -294 112 -294 254v506h115v-486c0 -96 79 -173 179 -173s179 77 179 173
v486h115v-506c0 -142 -130 -254 -294 -254z" />
    <glyph glyph-name="uni1EE4" unicode="&#x1ee4;" horiz-adv-x="740" 
d="M370 -10c-164 0 -294 112 -294 254v506h115v-486c0 -96 79 -173 179 -173s179 77 179 173v486h115v-506c0 -142 -130 -254 -294 -254zM370 -196c-37 0 -68 31 -68 68s31 68 68 68s68 -31 68 -68s-31 -68 -68 -68z" />
    <glyph glyph-name="Ugrave" unicode="&#xd9;" horiz-adv-x="740" 
d="M322 840l-114 160h113l87 -160h-86zM370 -10c-164 0 -294 112 -294 254v506h115v-486c0 -96 79 -173 179 -173s179 77 179 173v486h115v-506c0 -142 -130 -254 -294 -254z" />
    <glyph glyph-name="Uhungarumlaut" unicode="&#x170;" horiz-adv-x="740" 
d="M237 824l144 176h106l-170 -176h-80zM423 824l144 176h106l-170 -176h-80zM370 -10c-164 0 -294 112 -294 254v506h115v-486c0 -96 79 -173 179 -173s179 77 179 173v486h115v-506c0 -142 -130 -254 -294 -254z" />
    <glyph glyph-name="Umacron" unicode="&#x16a;" horiz-adv-x="740" 
d="M215 844v72h310v-72h-310zM370 -10c-164 0 -294 112 -294 254v506h115v-486c0 -96 79 -173 179 -173s179 77 179 173v486h115v-506c0 -142 -130 -254 -294 -254z" />
    <glyph glyph-name="Uogonek" unicode="&#x172;" horiz-adv-x="740" 
d="M549 750h115v-506c0 -131 -110 -236 -256 -252c-49 -23 -88 -78 -88 -130c0 -34 22 -60 63 -60c36 0 72 20 92 49l36 -51c-40 -40 -93 -58 -147 -55c-69 4 -120 40 -120 108c0 56 34 104 94 138c-149 14 -262 121 -262 253v506h115v-486c0 -96 79 -173 179 -173
s179 77 179 173v486z" />
    <glyph glyph-name="Uring" unicode="&#x16e;" horiz-adv-x="740" 
d="M370 806c-60 0 -109 49 -109 108s49 108 109 108c59 0 107 -49 107 -108s-48 -108 -107 -108zM370 854c33 0 59 25 59 60c0 33 -26 61 -59 61s-59 -28 -59 -61c0 -35 26 -60 59 -60zM370 -10c-164 0 -294 112 -294 254v506h115v-486c0 -96 79 -173 179 -173
s179 77 179 173v486h115v-506c0 -142 -130 -254 -294 -254z" />
    <glyph glyph-name="Utilde" unicode="&#x168;" horiz-adv-x="740" 
d="M438 828c-39 0 -70 17 -96 56c-11 17 -22 25 -38 25c-28 0 -42 -30 -31 -72h-68c-14 81 31 138 96 138c43 0 75 -23 97 -56c10 -17 21 -25 38 -25c28 0 41 29 31 72h67c15 -79 -27 -138 -96 -138zM370 -10c-164 0 -294 112 -294 254v506h115v-486c0 -96 79 -173 179 -173
s179 77 179 173v486h115v-506c0 -142 -130 -254 -294 -254z" />
    <glyph glyph-name="V" unicode="V" horiz-adv-x="762" 
d="M617 750h129l-301 -750h-129l-301 750h129l237 -617z" />
    <glyph glyph-name="W" unicode="W" horiz-adv-x="1121" 
d="M1007 750h124l-317 -750h-125l-129 305l-128 -305h-124l-318 750h124l260 -614l129 305l-130 309h118l257 -615z" />
    <glyph glyph-name="Wacute" unicode="&#x1e82;" horiz-adv-x="1121" 
d="M719 1000l-113 -160h-87l87 160h113zM1007 750h124l-317 -750h-125l-129 305l-128 -305h-124l-318 750h124l260 -614l129 305l-130 309h118l257 -615z" />
    <glyph glyph-name="Wcircumflex" unicode="&#x174;" horiz-adv-x="1121" 
d="M561 949l-75 -120h-87l103 171h117l104 -171h-88zM1007 750h124l-317 -750h-125l-129 305l-128 -305h-124l-318 750h124l260 -614l129 305l-130 309h118l257 -615z" />
    <glyph glyph-name="Wdieresis" unicode="&#x1e84;" horiz-adv-x="1121" 
d="M461 840c-37 0 -68 30 -68 67c0 38 31 68 68 68s68 -30 68 -68c0 -37 -31 -67 -68 -67zM661 840c-37 0 -68 30 -68 67c0 38 31 68 68 68s67 -30 67 -68c0 -37 -30 -67 -67 -67zM1007 750h124l-317 -750h-125l-129 305l-128 -305h-124l-318 750h124l260 -614l129 305
l-130 309h118l257 -615z" />
    <glyph glyph-name="Wgrave" unicode="&#x1e80;" horiz-adv-x="1121" 
d="M599 840h-86l-114 160h113zM1007 750h124l-317 -750h-125l-129 305l-128 -305h-124l-318 750h124l260 -614l129 305l-130 309h118l257 -615z" />
    <glyph glyph-name="X" unicode="X" horiz-adv-x="670" 
d="M654 0h-132l-188 289l-187 -289h-132l257 383l-247 367h131l178 -273l179 273h131l-248 -367z" />
    <glyph glyph-name="Y" unicode="Y" horiz-adv-x="670" 
d="M654 750l-261 -394v-356h-115v353l-263 397h129l191 -298l192 298h127z" />
    <glyph glyph-name="Yacute" unicode="&#xdd;" horiz-adv-x="670" 
d="M494 1000l-113 -160h-87l87 160h113zM654 750l-261 -394v-356h-115v353l-263 397h129l191 -298l192 298h127z" />
    <glyph glyph-name="Ycircumflex" unicode="&#x176;" horiz-adv-x="670" 
d="M336 949l-75 -120h-87l103 171h117l104 -171h-88zM654 750l-261 -394v-356h-115v353l-263 397h129l191 -298l192 298h127z" />
    <glyph glyph-name="Ydieresis" unicode="&#x178;" horiz-adv-x="670" 
d="M236 840c-37 0 -68 30 -68 67c0 38 31 68 68 68s68 -30 68 -68c0 -37 -31 -67 -68 -67zM436 840c-37 0 -68 30 -68 67c0 38 31 68 68 68s67 -30 67 -68c0 -37 -30 -67 -67 -67zM654 750l-261 -394v-356h-115v353l-263 397h129l191 -298l192 298h127z" />
    <glyph glyph-name="uni1EF4" unicode="&#x1ef4;" horiz-adv-x="670" 
d="M278 0v353l-263 397h129l191 -298l192 298h127l-261 -394v-356h-115zM336 -60c37 0 68 -31 68 -68s-31 -68 -68 -68s-68 31 -68 68s31 68 68 68z" />
    <glyph glyph-name="Ygrave" unicode="&#x1ef2;" horiz-adv-x="670" 
d="M374 840h-86l-114 160h113zM654 750l-261 -394v-356h-115v353l-263 397h129l191 -298l192 298h127z" />
    <glyph glyph-name="uni1EF8" unicode="&#x1ef8;" horiz-adv-x="670" 
d="M239 837h-68c-14 81 31 138 96 138c43 0 75 -23 97 -56c10 -17 21 -25 38 -25c28 0 41 29 31 72h67c15 -79 -27 -138 -96 -138c-39 0 -70 17 -96 56c-11 17 -22 25 -38 25c-28 0 -42 -30 -31 -72zM654 750l-261 -394v-356h-115v353l-263 397h129l191 -298l192 298h127z
" />
    <glyph glyph-name="Z" unicode="Z" horiz-adv-x="658" 
d="M199 101h414v-101h-570v61l406 588h-395v101h551v-61z" />
    <glyph glyph-name="Zacute" unicode="&#x179;" horiz-adv-x="658" 
d="M495 1000l-113 -160h-87l87 160h113zM199 101h414v-101h-570v61l406 588h-395v101h551v-61z" />
    <glyph glyph-name="Zcaron" unicode="&#x17d;" horiz-adv-x="658" 
d="M395 829h-117l-103 171h84l78 -119l78 119h84zM199 101h414v-101h-570v61l406 588h-395v101h551v-61z" />
    <glyph glyph-name="Zdotaccent" unicode="&#x17b;" horiz-adv-x="658" 
d="M337 840c-37 0 -68 30 -68 67c0 38 31 68 68 68s68 -30 68 -68c0 -37 -31 -67 -68 -67zM199 101h414v-101h-570v61l406 588h-395v101h551v-61z" />
    <glyph glyph-name="uni1E92" unicode="&#x1e92;" horiz-adv-x="658" 
d="M199 101h414v-101h-570v61l406 588h-395v101h551v-61zM326 -60c37 0 68 -31 68 -68s-31 -68 -68 -68s-68 31 -68 68s31 68 68 68z" />
    <glyph glyph-name="a" unicode="a" horiz-adv-x="539" 
d="M260 510c118 0 214 -64 214 -196v-314h-98l-5 62c-50 -42 -112 -72 -172 -72c-89 0 -154 64 -154 153c0 90 69 167 237 144l83 -11v45c0 67 -51 95 -110 95c-52 0 -88 -19 -120 -60l-76 69c42 52 104 85 201 85zM158 149c0 -37 27 -61 67 -61c51 0 101 30 140 62v45
l-66 10c-114 17 -141 -17 -141 -56z" />
    <glyph glyph-name="aacute" unicode="&#xe1;" horiz-adv-x="539" 
d="M434 750l-113 -160h-87l87 160h113zM260 510c118 0 214 -64 214 -196v-314h-98l-5 62c-50 -42 -112 -72 -172 -72c-89 0 -154 64 -154 153c0 90 69 167 237 144l83 -11v45c0 67 -51 95 -110 95c-52 0 -88 -19 -120 -60l-76 69c42 52 104 85 201 85zM158 149
c0 -37 27 -61 67 -61c51 0 101 30 140 62v45l-66 10c-114 17 -141 -17 -141 -56z" />
    <glyph glyph-name="abreve" unicode="&#x103;" horiz-adv-x="539" 
d="M275 562c-99 0 -171 58 -171 162h66c0 -51 43 -96 105 -96c64 0 107 45 107 96h65c0 -104 -71 -162 -172 -162zM260 510c118 0 214 -64 214 -196v-314h-98l-5 62c-50 -42 -112 -72 -172 -72c-89 0 -154 64 -154 153c0 90 69 167 237 144l83 -11v45c0 67 -51 95 -110 95
c-52 0 -88 -19 -120 -60l-76 69c42 52 104 85 201 85zM158 149c0 -37 27 -61 67 -61c51 0 101 30 140 62v45l-66 10c-114 17 -141 -17 -141 -56z" />
    <glyph glyph-name="uni01CE" unicode="&#x1ce;" horiz-adv-x="539" 
d="M334 579h-117l-103 171h84l78 -119l78 119h84zM260 510c118 0 214 -64 214 -196v-314h-98l-5 62c-50 -42 -112 -72 -172 -72c-89 0 -154 64 -154 153c0 90 69 167 237 144l83 -11v45c0 67 -51 95 -110 95c-52 0 -88 -19 -120 -60l-76 69c42 52 104 85 201 85zM158 149
c0 -37 27 -61 67 -61c51 0 101 30 140 62v45l-66 10c-114 17 -141 -17 -141 -56z" />
    <glyph glyph-name="acircumflex" unicode="&#xe2;" horiz-adv-x="539" 
d="M276 699l-75 -120h-87l103 171h117l104 -171h-88zM260 510c118 0 214 -64 214 -196v-314h-98l-5 62c-50 -42 -112 -72 -172 -72c-89 0 -154 64 -154 153c0 90 69 167 237 144l83 -11v45c0 67 -51 95 -110 95c-52 0 -88 -19 -120 -60l-76 69c42 52 104 85 201 85zM158 149
c0 -37 27 -61 67 -61c51 0 101 30 140 62v45l-66 10c-114 17 -141 -17 -141 -56z" />
    <glyph glyph-name="adieresis" unicode="&#xe4;" horiz-adv-x="539" 
d="M176 590c-37 0 -68 30 -68 67c0 38 31 68 68 68s68 -30 68 -68c0 -37 -31 -67 -68 -67zM376 590c-37 0 -68 30 -68 67c0 38 31 68 68 68s67 -30 67 -68c0 -37 -30 -67 -67 -67zM260 510c118 0 214 -64 214 -196v-314h-98l-5 62c-50 -42 -112 -72 -172 -72
c-89 0 -154 64 -154 153c0 90 69 167 237 144l83 -11v45c0 67 -51 95 -110 95c-52 0 -88 -19 -120 -60l-76 69c42 52 104 85 201 85zM158 149c0 -37 27 -61 67 -61c51 0 101 30 140 62v45l-66 10c-114 17 -141 -17 -141 -56z" />
    <glyph glyph-name="uni1EA1" unicode="&#x1ea1;" horiz-adv-x="539" 
d="M260 510c118 0 214 -64 214 -196v-314h-98l-5 62c-50 -42 -112 -72 -172 -72c-89 0 -154 64 -154 153c0 90 69 167 237 144l83 -11v45c0 67 -51 95 -110 95c-52 0 -88 -19 -120 -60l-76 69c42 52 104 85 201 85zM158 149c0 -37 27 -61 67 -61c51 0 101 30 140 62v45
l-66 10c-114 17 -141 -17 -141 -56zM260 -60c37 0 68 -31 68 -68s-31 -68 -68 -68s-68 31 -68 68s31 68 68 68z" />
    <glyph glyph-name="agrave" unicode="&#xe0;" horiz-adv-x="539" 
d="M314 590h-86l-114 160h113zM260 510c118 0 214 -64 214 -196v-314h-98l-5 62c-50 -42 -112 -72 -172 -72c-89 0 -154 64 -154 153c0 90 69 167 237 144l83 -11v45c0 67 -51 95 -110 95c-52 0 -88 -19 -120 -60l-76 69c42 52 104 85 201 85zM158 149c0 -37 27 -61 67 -61
c51 0 101 30 140 62v45l-66 10c-114 17 -141 -17 -141 -56z" />
    <glyph glyph-name="amacron" unicode="&#x101;" horiz-adv-x="539" 
d="M431 666v-72h-310v72h310zM260 510c118 0 214 -64 214 -196v-314h-98l-5 62c-50 -42 -112 -72 -172 -72c-89 0 -154 64 -154 153c0 90 69 167 237 144l83 -11v45c0 67 -51 95 -110 95c-52 0 -88 -19 -120 -60l-76 69c42 52 104 85 201 85zM158 149c0 -37 27 -61 67 -61
c51 0 101 30 140 62v45l-66 10c-114 17 -141 -17 -141 -56z" />
    <glyph glyph-name="aogonek" unicode="&#x105;" horiz-adv-x="539" 
d="M491 -153l36 -51c-40 -40 -93 -58 -147 -55c-69 4 -120 40 -120 108c0 63 43 116 117 151h-1l-5 62c-50 -42 -112 -72 -172 -72c-89 0 -154 64 -154 153c0 90 69 167 237 144l83 -11v45c0 67 -51 95 -110 95c-52 0 -88 -19 -120 -60l-76 69c42 52 104 85 201 85
c118 0 214 -64 214 -196v-314c-70 0 -138 -73 -138 -142c0 -34 22 -60 63 -60c36 0 72 20 92 49zM158 149c0 -37 27 -61 67 -61c51 0 101 30 140 62v45l-66 10c-114 17 -141 -17 -141 -56z" />
    <glyph glyph-name="aring" unicode="&#xe5;" horiz-adv-x="539" 
d="M276 556c-60 0 -109 49 -109 108s49 108 109 108c59 0 107 -49 107 -108s-48 -108 -107 -108zM276 725c-33 0 -59 -28 -59 -61c0 -35 26 -60 59 -60s59 25 59 60c0 33 -26 61 -59 61zM260 510c118 0 214 -64 214 -196v-314h-98l-5 62c-50 -42 -112 -72 -172 -72
c-89 0 -154 64 -154 153c0 90 69 167 237 144l83 -11v45c0 67 -51 95 -110 95c-52 0 -88 -19 -120 -60l-76 69c42 52 104 85 201 85zM158 149c0 -37 27 -61 67 -61c51 0 101 30 140 62v45l-66 10c-114 17 -141 -17 -141 -56z" />
    <glyph glyph-name="atilde" unicode="&#xe3;" horiz-adv-x="539" 
d="M179 587h-68c-14 81 31 138 96 138c43 0 75 -23 97 -56c10 -17 21 -25 38 -25c28 0 41 29 31 72h67c15 -79 -27 -138 -96 -138c-39 0 -70 17 -96 56c-11 17 -22 25 -38 25c-28 0 -42 -30 -31 -72zM260 510c118 0 214 -64 214 -196v-314h-98l-5 62
c-50 -42 -112 -72 -172 -72c-89 0 -154 64 -154 153c0 90 69 167 237 144l83 -11v45c0 67 -51 95 -110 95c-52 0 -88 -19 -120 -60l-76 69c42 52 104 85 201 85zM158 149c0 -37 27 -61 67 -61c51 0 101 30 140 62v45l-66 10c-114 17 -141 -17 -141 -56z" />
    <glyph glyph-name="ae" unicode="&#xe6;" horiz-adv-x="839" 
d="M801 246c0 -10 0 -21 -2 -31h-354c9 -80 53 -129 135 -129c55 0 87 17 128 81l77 -54c-41 -77 -111 -123 -209 -123c-85 0 -150 34 -191 90c-53 -51 -125 -90 -193 -90c-89 0 -154 64 -154 153c0 90 69 167 237 144l62 -8c2 27 8 52 16 76c-14 42 -57 61 -105 61
c-52 0 -88 -19 -120 -60l-76 69c42 52 104 85 201 85c81 0 137 -21 165 -56c40 35 93 56 158 56c145 0 225 -109 225 -264zM578 415c-74 0 -117 -44 -130 -115h253c-10 72 -51 115 -123 115zM151 149c0 -37 27 -61 67 -61c49 0 96 27 134 57c-6 17 -10 34 -12 53l-48 7
c-114 17 -141 -17 -141 -56z" />
    <glyph glyph-name="b" unicode="b" horiz-adv-x="592" 
d="M325 510c142 0 229 -114 229 -260s-87 -260 -229 -260c-62 0 -114 25 -151 66l-5 -56h-99v750h109v-301c37 38 87 61 146 61zM307 88c87 0 139 72 139 162s-52 162 -139 162c-59 0 -108 -43 -128 -104v-116c20 -61 69 -104 128 -104z" />
    <glyph glyph-name="uni1E05" unicode="&#x1e05;" horiz-adv-x="592" 
d="M325 510c142 0 229 -114 229 -260s-87 -260 -229 -260c-62 0 -114 25 -151 66l-5 -56h-99v750h109v-301c37 38 87 61 146 61zM307 88c87 0 139 72 139 162s-52 162 -139 162c-59 0 -108 -43 -128 -104v-116c20 -61 69 -104 128 -104zM319 -60c37 0 68 -31 68 -68
s-31 -68 -68 -68s-68 31 -68 68s31 68 68 68z" />
    <glyph glyph-name="c" unicode="c" horiz-adv-x="434" 
d="M275 -10c-150 0 -237 109 -237 260s87 260 237 260c36 0 85 -7 124 -35v-110c-26 30 -68 51 -112 51c-89 0 -140 -70 -140 -166s51 -167 140 -167c45 0 87 22 112 51v-109c-38 -28 -88 -35 -124 -35z" />
    <glyph glyph-name="cacute" unicode="&#x107;" horiz-adv-x="434" 
d="M224 590l87 160h113l-113 -160h-87zM275 -10c-150 0 -237 109 -237 260s87 260 237 260c36 0 85 -7 124 -35v-110c-26 30 -68 51 -112 51c-89 0 -140 -70 -140 -166s51 -167 140 -167c45 0 87 22 112 51v-109c-38 -28 -88 -35 -124 -35z" />
    <glyph glyph-name="ccaron" unicode="&#x10d;" horiz-adv-x="434" 
d="M207 579l-103 171h84l78 -119l78 119h84l-104 -171h-117zM275 -10c-150 0 -237 109 -237 260s87 260 237 260c36 0 85 -7 124 -35v-110c-26 30 -68 51 -112 51c-89 0 -140 -70 -140 -166s51 -167 140 -167c45 0 87 22 112 51v-109c-38 -28 -88 -35 -124 -35z" />
    <glyph glyph-name="ccedilla" unicode="&#xe7;" horiz-adv-x="434" 
d="M287 416c-89 0 -140 -70 -140 -166s51 -167 140 -167c45 0 87 22 112 51v-109c-34 -25 -77 -33 -111 -35l-28 -54c68 13 122 -28 122 -91c0 -58 -46 -105 -105 -105c-47 0 -98 30 -116 68l50 19c13 -19 42 -34 66 -34c29 0 51 23 51 52c0 43 -41 61 -93 39l-43 27l43 82
c-125 17 -197 120 -197 257c0 151 87 260 237 260c36 0 85 -7 124 -35v-110c-26 30 -68 51 -112 51z" />
    <glyph glyph-name="cdotaccent" unicode="&#x10b;" horiz-adv-x="434" 
d="M266 590c-37 0 -68 30 -68 67c0 38 31 68 68 68s68 -30 68 -68c0 -37 -31 -67 -68 -67zM275 -10c-150 0 -237 109 -237 260s87 260 237 260c36 0 85 -7 124 -35v-110c-26 30 -68 51 -112 51c-89 0 -140 -70 -140 -166s51 -167 140 -167c45 0 87 22 112 51v-109
c-38 -28 -88 -35 -124 -35z" />
    <glyph glyph-name="d" unicode="d" horiz-adv-x="592" 
d="M414 750h108v-750h-98l-6 56c-37 -41 -89 -66 -151 -66c-142 0 -229 114 -229 260s87 260 229 260c59 0 110 -23 147 -62v302zM285 88c59 0 109 43 129 104v116c-20 61 -70 104 -129 104c-87 0 -138 -72 -138 -162s51 -162 138 -162z" />
    <glyph glyph-name="eth" unicode="&#xf0;" horiz-adv-x="621" 
d="M395 686c114 -89 189 -249 189 -436c0 -145 -121 -260 -273 -260s-273 115 -273 260s121 260 273 260c44 0 85 -10 122 -27c-24 58 -57 100 -96 130l-49 -63l-36 28l47 60c-44 23 -93 34 -140 35l22 89c64 0 124 -18 177 -50l43 55l36 -27zM311 88c89 0 161 72 161 162
s-72 162 -161 162c-90 0 -162 -72 -162 -162s72 -162 162 -162z" />
    <glyph glyph-name="dcaron" unicode="&#x10f;" horiz-adv-x="787" 
d="M711 756c52 0 76 -51 76 -111c0 -88 -49 -195 -134 -196v52c42 1 67 65 67 99c0 13 -3 21 -10 21c-37 0 -67 30 -67 68s30 67 68 67zM414 448v302h108v-750h-98l-6 56c-37 -41 -89 -66 -151 -66c-142 0 -229 114 -229 260s87 260 229 260c59 0 110 -23 147 -62zM285 88
c59 0 109 43 129 104v116c-20 61 -70 104 -129 104c-87 0 -138 -72 -138 -162s51 -162 138 -162z" />
    <glyph glyph-name="dcroat" unicode="&#x111;" horiz-adv-x="592" 
d="M601 655v-78h-79v-577h-98l-6 56c-37 -41 -89 -66 -151 -66c-142 0 -229 114 -229 260s87 260 229 260c59 0 110 -23 147 -62v129h-128v78h128v95h108v-95h79zM285 88c59 0 109 43 129 104v116c-20 61 -70 104 -129 104c-87 0 -138 -72 -138 -162s51 -162 138 -162z" />
    <glyph glyph-name="e" unicode="e" horiz-adv-x="541" 
d="M503 246c0 -10 0 -21 -2 -31h-354c9 -80 53 -129 135 -129c55 0 87 17 128 81l77 -54c-41 -77 -111 -123 -209 -123c-151 0 -240 108 -240 259c0 150 90 261 240 261c145 0 225 -109 225 -264zM280 415c-74 0 -117 -44 -130 -115h253c-10 72 -51 115 -123 115z" />
    <glyph glyph-name="eacute" unicode="&#xe9;" horiz-adv-x="541" 
d="M437 751l-113 -160h-87l87 160h113zM503 246c0 -10 0 -21 -2 -31h-354c9 -80 53 -129 135 -129c55 0 87 17 128 81l77 -54c-41 -77 -111 -123 -209 -123c-151 0 -240 108 -240 259c0 150 90 261 240 261c145 0 225 -109 225 -264zM280 415c-74 0 -117 -44 -130 -115h253
c-10 72 -51 115 -123 115z" />
    <glyph glyph-name="ecaron" unicode="&#x11b;" horiz-adv-x="541" 
d="M337 580h-117l-103 171h84l78 -119l78 119h84zM503 246c0 -10 0 -21 -2 -31h-354c9 -80 53 -129 135 -129c55 0 87 17 128 81l77 -54c-41 -77 -111 -123 -209 -123c-151 0 -240 108 -240 259c0 150 90 261 240 261c145 0 225 -109 225 -264zM280 415
c-74 0 -117 -44 -130 -115h253c-10 72 -51 115 -123 115z" />
    <glyph glyph-name="uni0229" unicode="&#x229;" horiz-adv-x="541" 
d="M503 246c0 -10 0 -21 -2 -31h-354c9 -80 53 -129 135 -129c55 0 87 17 128 81l77 -54c-37 -70 -99 -115 -184 -122l-28 -55c68 13 122 -28 122 -91c0 -58 -46 -105 -105 -105c-47 0 -98 30 -116 68l50 19c13 -19 42 -34 66 -34c29 0 51 23 51 52c0 43 -41 61 -93 39
l-43 27l42 80c-133 13 -211 117 -211 258c0 150 90 261 240 261c145 0 225 -109 225 -264zM280 415c-74 0 -117 -44 -130 -115h253c-10 72 -51 115 -123 115z" />
    <glyph glyph-name="ecircumflex" unicode="&#xea;" horiz-adv-x="541" 
d="M279 700l-75 -120h-87l103 171h117l104 -171h-88zM503 246c0 -10 0 -21 -2 -31h-354c9 -80 53 -129 135 -129c55 0 87 17 128 81l77 -54c-41 -77 -111 -123 -209 -123c-151 0 -240 108 -240 259c0 150 90 261 240 261c145 0 225 -109 225 -264zM280 415
c-74 0 -117 -44 -130 -115h253c-10 72 -51 115 -123 115z" />
    <glyph glyph-name="edieresis" unicode="&#xeb;" horiz-adv-x="541" 
d="M179 591c-37 0 -68 30 -68 67c0 38 31 68 68 68s68 -30 68 -68c0 -37 -31 -67 -68 -67zM379 591c-37 0 -68 30 -68 67c0 38 31 68 68 68s67 -30 67 -68c0 -37 -30 -67 -67 -67zM503 246c0 -10 0 -21 -2 -31h-354c9 -80 53 -129 135 -129c55 0 87 17 128 81l77 -54
c-41 -77 -111 -123 -209 -123c-151 0 -240 108 -240 259c0 150 90 261 240 261c145 0 225 -109 225 -264zM280 415c-74 0 -117 -44 -130 -115h253c-10 72 -51 115 -123 115z" />
    <glyph glyph-name="edotaccent" unicode="&#x117;" horiz-adv-x="541" 
d="M279 591c-37 0 -68 30 -68 67c0 38 31 68 68 68s68 -30 68 -68c0 -37 -31 -67 -68 -67zM503 246c0 -10 0 -21 -2 -31h-354c9 -80 53 -129 135 -129c55 0 87 17 128 81l77 -54c-41 -77 -111 -123 -209 -123c-151 0 -240 108 -240 259c0 150 90 261 240 261
c145 0 225 -109 225 -264zM280 415c-74 0 -117 -44 -130 -115h253c-10 72 -51 115 -123 115z" />
    <glyph glyph-name="uni1EB9" unicode="&#x1eb9;" horiz-adv-x="541" 
d="M503 246c0 -10 0 -21 -2 -31h-354c9 -80 53 -129 135 -129c55 0 87 17 128 81l77 -54c-41 -77 -111 -123 -209 -123c-151 0 -240 108 -240 259c0 150 90 261 240 261c145 0 225 -109 225 -264zM280 415c-74 0 -117 -44 -130 -115h253c-10 72 -51 115 -123 115zM281 -60
c37 0 68 -31 68 -68s-31 -68 -68 -68s-68 31 -68 68s31 68 68 68z" />
    <glyph glyph-name="egrave" unicode="&#xe8;" horiz-adv-x="541" 
d="M317 591h-86l-114 160h113zM503 246c0 -10 0 -21 -2 -31h-354c9 -80 53 -129 135 -129c55 0 87 17 128 81l77 -54c-41 -77 -111 -123 -209 -123c-151 0 -240 108 -240 259c0 150 90 261 240 261c145 0 225 -109 225 -264zM280 415c-74 0 -117 -44 -130 -115h253
c-10 72 -51 115 -123 115z" />
    <glyph glyph-name="emacron" unicode="&#x113;" horiz-adv-x="541" 
d="M434 667v-72h-310v72h310zM503 246c0 -10 0 -21 -2 -31h-354c9 -80 53 -129 135 -129c55 0 87 17 128 81l77 -54c-41 -77 -111 -123 -209 -123c-151 0 -240 108 -240 259c0 150 90 261 240 261c145 0 225 -109 225 -264zM280 415c-74 0 -117 -44 -130 -115h253
c-10 72 -51 115 -123 115z" />
    <glyph glyph-name="eogonek" unicode="&#x119;" horiz-adv-x="541" 
d="M503 246c0 -10 0 -21 -2 -31h-354c9 -80 53 -129 135 -129c55 0 87 17 128 81l77 -54c-33 -63 -86 -105 -158 -118c-16 -24 -26 -51 -26 -77c0 -34 22 -60 63 -60c36 0 72 20 92 49l36 -51c-40 -40 -93 -58 -147 -55c-69 4 -120 40 -120 108c0 30 10 57 28 82
c-137 10 -217 115 -217 258c0 150 90 261 240 261c145 0 225 -109 225 -264zM280 415c-74 0 -117 -44 -130 -115h253c-10 72 -51 115 -123 115z" />
    <glyph glyph-name="uni1EBD" unicode="&#x1ebd;" horiz-adv-x="541" 
d="M182 588h-68c-14 81 31 138 96 138c43 0 75 -23 97 -56c10 -17 21 -25 38 -25c28 0 41 29 31 72h67c15 -79 -27 -138 -96 -138c-39 0 -70 17 -96 56c-11 17 -22 25 -38 25c-28 0 -42 -30 -31 -72zM503 246c0 -10 0 -21 -2 -31h-354c9 -80 53 -129 135 -129
c55 0 87 17 128 81l77 -54c-41 -77 -111 -123 -209 -123c-151 0 -240 108 -240 259c0 150 90 261 240 261c145 0 225 -109 225 -264zM280 415c-74 0 -117 -44 -130 -115h253c-10 72 -51 115 -123 115z" />
    <glyph glyph-name="f" unicode="f" horiz-adv-x="387" 
d="M232 592v-92h127v-85h-127v-415h-111v415h-84v85h84v99c0 90 75 161 168 161c36 0 81 -5 123 -54l-62 -68c-13 18 -35 30 -59 30c-35 0 -59 -33 -59 -76z" />
    <glyph glyph-name="g" unicode="g" horiz-adv-x="593" 
d="M424 500h99v-496c0 -146 -86 -254 -236 -254c-64 0 -111 15 -152 39v119c40 -34 89 -60 159 -60c74 0 120 55 120 156v48c-37 -39 -88 -62 -147 -62c-142 0 -229 114 -229 260s87 260 229 260c62 0 114 -25 152 -67zM285 88c59 0 109 43 129 104v116
c-20 61 -70 104 -129 104c-87 0 -138 -72 -138 -162s51 -162 138 -162z" />
    <glyph glyph-name="gbreve" unicode="&#x11f;" horiz-adv-x="593" 
d="M279 562c-99 0 -171 58 -171 162h66c0 -51 43 -96 105 -96c64 0 107 45 107 96h65c0 -104 -71 -162 -172 -162zM424 500h99v-496c0 -146 -86 -254 -236 -254c-64 0 -111 15 -152 39v119c40 -34 89 -60 159 -60c74 0 120 55 120 156v48c-37 -39 -88 -62 -147 -62
c-142 0 -229 114 -229 260s87 260 229 260c62 0 114 -25 152 -67zM285 88c59 0 109 43 129 104v116c-20 61 -70 104 -129 104c-87 0 -138 -72 -138 -162s51 -162 138 -162z" />
    <glyph glyph-name="gcaron" unicode="&#x1e7;" horiz-adv-x="593" 
d="M338 579h-117l-103 171h84l78 -119l78 119h84zM424 500h99v-496c0 -146 -86 -254 -236 -254c-64 0 -111 15 -152 39v119c40 -34 89 -60 159 -60c74 0 120 55 120 156v48c-37 -39 -88 -62 -147 -62c-142 0 -229 114 -229 260s87 260 229 260c62 0 114 -25 152 -67zM285 88
c59 0 109 43 129 104v116c-20 61 -70 104 -129 104c-87 0 -138 -72 -138 -162s51 -162 138 -162z" />
    <glyph glyph-name="gcommaaccent" unicode="&#x123;" horiz-adv-x="593" 
d="M280 567c-38 0 -68 33 -68 75c-1 102 82 186 126 186v-39c-48 -19 -70 -86 -58 -86c38 0 68 -29 68 -67s-30 -69 -68 -69zM424 500h99v-496c0 -146 -86 -254 -236 -254c-64 0 -111 15 -152 39v119c40 -34 89 -60 159 -60c74 0 120 55 120 156v48
c-37 -39 -88 -62 -147 -62c-142 0 -229 114 -229 260s87 260 229 260c62 0 114 -25 152 -67zM285 88c59 0 109 43 129 104v116c-20 61 -70 104 -129 104c-87 0 -138 -72 -138 -162s51 -162 138 -162z" />
    <glyph glyph-name="gdotaccent" unicode="&#x121;" horiz-adv-x="593" 
d="M280 590c-37 0 -68 30 -68 67c0 38 31 68 68 68s68 -30 68 -68c0 -37 -31 -67 -68 -67zM424 500h99v-496c0 -146 -86 -254 -236 -254c-64 0 -111 15 -152 39v119c40 -34 89 -60 159 -60c74 0 120 55 120 156v48c-37 -39 -88 -62 -147 -62c-142 0 -229 114 -229 260
s87 260 229 260c62 0 114 -25 152 -67zM285 88c59 0 109 43 129 104v116c-20 61 -70 104 -129 104c-87 0 -138 -72 -138 -162s51 -162 138 -162z" />
    <glyph glyph-name="h" unicode="h" horiz-adv-x="595" 
d="M335 510c113 0 195 -79 195 -194v-316h-112v303c0 63 -49 109 -115 109c-68 0 -122 -51 -122 -115v-297h-111v750h111v-305c38 40 91 65 154 65z" />
    <glyph glyph-name="hbar" unicode="&#x127;" horiz-adv-x="595" 
d="M335 510c113 0 195 -79 195 -194v-316h-112v303c0 63 -49 109 -115 109c-68 0 -122 -51 -122 -115v-297h-111v583h-57v78h57v89h111v-89h147v-78h-147v-138c38 40 91 65 154 65z" />
    <glyph glyph-name="uni1E25" unicode="&#x1e25;" horiz-adv-x="595" 
d="M335 510c113 0 195 -79 195 -194v-316h-112v303c0 63 -49 109 -115 109c-68 0 -122 -51 -122 -115v-297h-111v750h111v-305c38 40 91 65 154 65zM294 -60c37 0 68 -31 68 -68s-31 -68 -68 -68s-68 31 -68 68s31 68 68 68z" />
    <glyph glyph-name="i" unicode="i" horiz-adv-x="284" 
d="M142 590c-37 0 -68 30 -68 67c0 38 31 68 68 68s68 -30 68 -68c0 -37 -31 -67 -68 -67zM86 0v500h111v-500h-111z" />
    <glyph glyph-name="dotlessi" unicode="&#x131;" horiz-adv-x="251" 
d="M70 0v500h111v-500h-111z" />
    <glyph glyph-name="iacute" unicode="&#xed;" horiz-adv-x="251" 
d="M84 590l87 160h113l-113 -160h-87zM70 0v500h111v-500h-111z" />
    <glyph glyph-name="uni01D0" unicode="&#x1d0;" horiz-adv-x="251" 
d="M67 579l-103 171h84l78 -119l78 119h84l-104 -171h-117zM70 0v500h111v-500h-111z" />
    <glyph glyph-name="icircumflex" unicode="&#xee;" horiz-adv-x="251" 
d="M-36 579l103 171h117l104 -171h-88l-74 120l-75 -120h-87zM70 0v500h111v-500h-111z" />
    <glyph glyph-name="idieresis" unicode="&#xef;" horiz-adv-x="251" 
d="M26 590c-37 0 -68 30 -68 67c0 38 31 68 68 68s68 -30 68 -68c0 -37 -31 -67 -68 -67zM226 590c-37 0 -68 30 -68 67c0 38 31 68 68 68s67 -30 67 -68c0 -37 -30 -67 -67 -67zM70 0v500h111v-500h-111z" />
    <glyph glyph-name="i.loclTRK" horiz-adv-x="251" 
d="M126 590c-37 0 -68 30 -68 67c0 38 31 68 68 68s68 -30 68 -68c0 -37 -31 -67 -68 -67zM70 0v500h111v-500h-111z" />
    <glyph glyph-name="uni1ECB" unicode="&#x1ecb;" horiz-adv-x="284" 
d="M142 590c-37 0 -68 30 -68 67c0 38 31 68 68 68s68 -30 68 -68c0 -37 -31 -67 -68 -67zM86 0v500h111v-500h-111zM148 -211c-37 0 -68 31 -68 68s31 68 68 68s68 -31 68 -68s-31 -68 -68 -68z" />
    <glyph glyph-name="igrave" unicode="&#xec;" horiz-adv-x="251" 
d="M78 590l-114 160h113l87 -160h-86zM70 0v500h111v-500h-111z" />
    <glyph glyph-name="ij" unicode="&#x133;" horiz-adv-x="554" 
d="M142 590c-37 0 -68 30 -68 67c0 38 31 68 68 68s68 -30 68 -68c0 -37 -31 -67 -68 -67zM436 590c-37 0 -68 30 -68 67c0 38 31 68 68 68s68 -30 68 -68c0 -37 -31 -67 -68 -67zM86 0v500h111v-500h-111zM324 -260c-25 0 -55 7 -68 16v95c14 -11 38 -19 55 -19
c39 0 70 33 70 76v592h111v-599c0 -90 -74 -161 -168 -161z" />
    <glyph glyph-name="imacron" unicode="&#x12b;" horiz-adv-x="251" 
d="M-29 594v72h310v-72h-310zM70 0v500h111v-500h-111z" />
    <glyph glyph-name="iogonek" unicode="&#x12f;" horiz-adv-x="251" 
d="M126 590c-37 0 -68 30 -68 67c0 38 31 68 68 68s68 -30 68 -68c0 -37 -31 -67 -68 -67zM189 -153l36 -51c-40 -40 -93 -58 -147 -55c-69 4 -120 40 -120 108c0 63 43 116 117 151h-5v500h111v-500h-9c-70 0 -138 -73 -138 -142c0 -34 22 -60 63 -60c36 0 72 20 92 49z
" />
    <glyph glyph-name="itilde" unicode="&#x129;" horiz-adv-x="251" 
d="M194 578c-39 0 -70 17 -96 56c-11 17 -22 25 -38 25c-28 0 -42 -30 -31 -72h-68c-14 81 31 138 96 138c43 0 75 -23 97 -56c10 -17 21 -25 38 -25c28 0 41 29 31 72h67c15 -79 -27 -138 -96 -138zM70 0v500h111v-500h-111z" />
    <glyph glyph-name="j" unicode="j" horiz-adv-x="270" 
d="M152 590c-37 0 -68 30 -68 67c0 38 31 68 68 68s68 -30 68 -68c0 -37 -31 -67 -68 -67zM40 -260c-25 0 -55 7 -68 16v95c14 -11 38 -19 55 -19c39 0 70 33 70 76v592h111v-599c0 -90 -74 -161 -168 -161z" />
    <glyph glyph-name="uni0237" unicode="&#x237;" horiz-adv-x="302" 
d="M44 -260c-25 0 -55 7 -68 16v95c14 -11 38 -19 55 -19c39 0 70 33 70 76v592h111v-599c0 -90 -74 -161 -168 -161z" />
    <glyph glyph-name="k" unicode="k" horiz-adv-x="535" 
d="M519 500l-234 -220l231 -203v-134l-335 297v-240h-111v750h111v-437l199 187h139z" />
    <glyph glyph-name="kcommaaccent" unicode="&#x137;" horiz-adv-x="535" 
d="M519 500l-234 -220l231 -203v-134l-335 297v-240h-111v750h111v-437l199 187h139zM270 -40c39 0 68 -31 68 -75c0 -102 -47 -190 -126 -186v40c58 1 70 85 57 85c-39 0 -67 28 -67 68c0 39 28 68 68 68z" />
    <glyph glyph-name="l" unicode="l" horiz-adv-x="348" 
d="M249 -10c-107 0 -174 69 -174 170v590h111l1 -590c0 -51 24 -75 65 -75c22 0 39 6 55 24l61 -75c-27 -28 -67 -44 -119 -44z" />
    <glyph glyph-name="lacute" unicode="&#x13a;" horiz-adv-x="348" 
d="M83 840l87 160h113l-113 -160h-87zM249 -10c-107 0 -174 69 -174 170v590h111l1 -590c0 -51 24 -75 65 -75c22 0 39 6 55 24l61 -75c-27 -28 -67 -44 -119 -44z" />
    <glyph glyph-name="lcaron" unicode="&#x13e;" horiz-adv-x="384" 
d="M260 449v52c42 1 67 65 67 99c0 13 -3 21 -10 21c-37 0 -67 30 -67 68s30 67 68 67c52 0 76 -51 76 -111c0 -88 -49 -195 -134 -196zM249 -10c-107 0 -174 69 -174 170v590h111l1 -590c0 -51 24 -75 65 -75c22 0 39 6 55 24l61 -75c-27 -28 -67 -44 -119 -44z" />
    <glyph glyph-name="lcommaaccent" unicode="&#x13c;" horiz-adv-x="348" 
d="M249 -10c-107 0 -174 69 -174 170v590h111l1 -590c0 -51 24 -75 65 -75c22 0 39 6 55 24l61 -75c-27 -28 -67 -44 -119 -44zM170 -301v40c58 1 70 85 57 85c-39 0 -67 28 -67 68c0 39 28 68 68 68c39 0 68 -31 68 -75c0 -102 -47 -190 -126 -186z" />
    <glyph glyph-name="ldot" unicode="&#x140;" horiz-adv-x="348" 
d="M249 -10c-107 0 -174 69 -174 170v590h111l1 -590c0 -51 24 -75 65 -75c22 0 39 6 55 24l61 -75c-27 -28 -67 -44 -119 -44zM269 308c-28 0 -52 22 -52 52c0 28 24 52 52 52s53 -24 53 -52c0 -30 -25 -52 -53 -52z" />
    <glyph glyph-name="uni1E37" unicode="&#x1e37;" horiz-adv-x="348" 
d="M249 -10c-107 0 -174 69 -174 170v590h111l1 -590c0 -51 24 -75 65 -75c22 0 39 6 55 24l61 -75c-27 -28 -67 -44 -119 -44zM227 -196c-37 0 -68 31 -68 68s31 68 68 68s68 -31 68 -68s-31 -68 -68 -68z" />
    <glyph glyph-name="lslash" unicode="&#x142;" horiz-adv-x="348" 
d="M307 109l61 -75c-27 -28 -67 -44 -119 -44c-107 0 -174 69 -174 170v115l-52 -54h-78l130 138v391h111v-273l34 36h85l-118 -123v-230c0 -51 24 -75 65 -75c22 0 39 6 55 24z" />
    <glyph glyph-name="m" unicode="m" horiz-adv-x="903" 
d="M651 510c111 0 187 -78 187 -190v-320h-112v307c0 60 -44 105 -104 105c-64 0 -112 -50 -112 -112v-300h-112v307c0 60 -44 105 -104 105c-63 0 -113 -50 -113 -112v-300h-111v500h101l5 -54c36 39 87 64 148 64c69 0 125 -31 157 -83c38 51 99 83 170 83z" />
    <glyph glyph-name="n" unicode="n" horiz-adv-x="595" 
d="M335 510c113 0 195 -79 195 -194v-316h-112v303c0 63 -49 109 -115 109c-68 0 -122 -51 -122 -115v-297h-111v500h101l6 -59c38 43 93 69 158 69z" />
    <glyph glyph-name="nacute" unicode="&#x144;" horiz-adv-x="595" 
d="M458 750l-113 -160h-87l87 160h113zM335 510c113 0 195 -79 195 -194v-316h-112v303c0 63 -49 109 -115 109c-68 0 -122 -51 -122 -115v-297h-111v500h101l6 -59c38 43 93 69 158 69z" />
    <glyph glyph-name="ncaron" unicode="&#x148;" horiz-adv-x="595" 
d="M358 579h-117l-103 171h84l78 -119l78 119h84zM335 510c113 0 195 -79 195 -194v-316h-112v303c0 63 -49 109 -115 109c-68 0 -122 -51 -122 -115v-297h-111v500h101l6 -59c38 43 93 69 158 69z" />
    <glyph glyph-name="ncommaaccent" unicode="&#x146;" horiz-adv-x="595" 
d="M335 510c113 0 195 -79 195 -194v-316h-112v303c0 63 -49 109 -115 109c-68 0 -122 -51 -122 -115v-297h-111v500h101l6 -59c38 43 93 69 158 69zM301 -40c39 0 68 -31 68 -75c0 -102 -47 -190 -126 -186v40c58 1 70 85 57 85c-39 0 -67 28 -67 68c0 39 28 68 68 68z" />
    <glyph glyph-name="uni1E45" unicode="&#x1e45;" horiz-adv-x="595" 
d="M300 590c-37 0 -68 30 -68 67c0 38 31 68 68 68s68 -30 68 -68c0 -37 -31 -67 -68 -67zM335 510c113 0 195 -79 195 -194v-316h-112v303c0 63 -49 109 -115 109c-68 0 -122 -51 -122 -115v-297h-111v500h101l6 -59c38 43 93 69 158 69z" />
    <glyph glyph-name="uni1E47" unicode="&#x1e47;" horiz-adv-x="595" 
d="M335 510c113 0 195 -79 195 -194v-316h-112v303c0 63 -49 109 -115 109c-68 0 -122 -51 -122 -115v-297h-111v500h101l6 -59c38 43 93 69 158 69zM300 -60c37 0 68 -31 68 -68s-31 -68 -68 -68s-68 31 -68 68s31 68 68 68z" />
    <glyph glyph-name="eng" unicode="&#x14b;" horiz-adv-x="624" 
d="M350 510c110 0 197 -89 197 -200v-382c0 -107 -84 -150 -187 -149v75c40 -1 75 9 75 74v369c0 64 -51 115 -115 115c-68 0 -122 -51 -122 -115v-297h-111v500h111v-65c37 46 91 75 152 75z" />
    <glyph glyph-name="ntilde" unicode="&#xf1;" horiz-adv-x="595" 
d="M203 587h-68c-14 81 31 138 96 138c43 0 75 -23 97 -56c10 -17 21 -25 38 -25c28 0 41 29 31 72h67c15 -79 -27 -138 -96 -138c-39 0 -70 17 -96 56c-11 17 -22 25 -38 25c-28 0 -42 -30 -31 -72zM335 510c113 0 195 -79 195 -194v-316h-112v303c0 63 -49 109 -115 109
c-68 0 -122 -51 -122 -115v-297h-111v500h101l6 -59c38 43 93 69 158 69z" />
    <glyph glyph-name="o" unicode="o" horiz-adv-x="570" 
d="M285 -10c-148 0 -247 115 -247 260s99 260 247 260s247 -115 247 -260s-99 -260 -247 -260zM285 88c86 0 138 72 138 162s-52 162 -138 162c-87 0 -138 -72 -138 -162s51 -162 138 -162z" />
    <glyph glyph-name="oacute" unicode="&#xf3;" horiz-adv-x="570" 
d="M243 590l87 160h113l-113 -160h-87zM285 -10c-148 0 -247 115 -247 260s99 260 247 260s247 -115 247 -260s-99 -260 -247 -260zM285 88c86 0 138 72 138 162s-52 162 -138 162c-87 0 -138 -72 -138 -162s51 -162 138 -162z" />
    <glyph glyph-name="uni01D2" unicode="&#x1d2;" horiz-adv-x="570" 
d="M226 579l-103 171h84l78 -119l78 119h84l-104 -171h-117zM285 -10c-148 0 -247 115 -247 260s99 260 247 260s247 -115 247 -260s-99 -260 -247 -260zM285 88c86 0 138 72 138 162s-52 162 -138 162c-87 0 -138 -72 -138 -162s51 -162 138 -162z" />
    <glyph glyph-name="ocircumflex" unicode="&#xf4;" horiz-adv-x="570" 
d="M123 579l103 171h117l104 -171h-88l-74 120l-75 -120h-87zM285 -10c-148 0 -247 115 -247 260s99 260 247 260s247 -115 247 -260s-99 -260 -247 -260zM285 88c86 0 138 72 138 162s-52 162 -138 162c-87 0 -138 -72 -138 -162s51 -162 138 -162z" />
    <glyph glyph-name="odieresis" unicode="&#xf6;" horiz-adv-x="570" 
d="M185 590c-37 0 -68 30 -68 67c0 38 31 68 68 68s68 -30 68 -68c0 -37 -31 -67 -68 -67zM385 590c-37 0 -68 30 -68 67c0 38 31 68 68 68s67 -30 67 -68c0 -37 -30 -67 -67 -67zM285 -10c-148 0 -247 115 -247 260s99 260 247 260s247 -115 247 -260s-99 -260 -247 -260z
M285 88c86 0 138 72 138 162s-52 162 -138 162c-87 0 -138 -72 -138 -162s51 -162 138 -162z" />
    <glyph glyph-name="uni1ECD" unicode="&#x1ecd;" horiz-adv-x="570" 
d="M285 -10c-148 0 -247 115 -247 260s99 260 247 260s247 -115 247 -260s-99 -260 -247 -260zM285 88c86 0 138 72 138 162s-52 162 -138 162c-87 0 -138 -72 -138 -162s51 -162 138 -162zM285 -196c-37 0 -68 31 -68 68s31 68 68 68s68 -31 68 -68s-31 -68 -68 -68z" />
    <glyph glyph-name="ograve" unicode="&#xf2;" horiz-adv-x="570" 
d="M237 590l-114 160h113l87 -160h-86zM285 -10c-148 0 -247 115 -247 260s99 260 247 260s247 -115 247 -260s-99 -260 -247 -260zM285 88c86 0 138 72 138 162s-52 162 -138 162c-87 0 -138 -72 -138 -162s51 -162 138 -162z" />
    <glyph glyph-name="ohungarumlaut" unicode="&#x151;" horiz-adv-x="570" 
d="M152 574l144 176h106l-170 -176h-80zM338 574l144 176h106l-170 -176h-80zM285 -10c-148 0 -247 115 -247 260s99 260 247 260s247 -115 247 -260s-99 -260 -247 -260zM285 88c86 0 138 72 138 162s-52 162 -138 162c-87 0 -138 -72 -138 -162s51 -162 138 -162z" />
    <glyph glyph-name="omacron" unicode="&#x14d;" horiz-adv-x="570" 
d="M130 594v72h310v-72h-310zM285 -10c-148 0 -247 115 -247 260s99 260 247 260s247 -115 247 -260s-99 -260 -247 -260zM285 88c86 0 138 72 138 162s-52 162 -138 162c-87 0 -138 -72 -138 -162s51 -162 138 -162z" />
    <glyph glyph-name="oslash" unicode="&#xf8;" horiz-adv-x="570" 
d="M447 451c54 -47 85 -119 85 -201c0 -145 -99 -260 -247 -260c-47 0 -88 11 -124 32l-36 -55h-55l54 81c-54 48 -86 120 -86 202c0 145 99 260 247 260c47 0 89 -12 125 -32l36 54h54zM147 250c0 -45 12 -85 36 -114l171 257c-20 12 -43 19 -69 19
c-87 0 -138 -72 -138 -162zM285 88c86 0 138 72 138 162c0 44 -12 84 -35 113l-171 -257c19 -12 42 -18 68 -18z" />
    <glyph glyph-name="oslashacute" unicode="&#x1ff;" horiz-adv-x="570" 
d="M443 750l-113 -160h-87l87 160h113zM447 451c54 -47 85 -119 85 -201c0 -145 -99 -260 -247 -260c-47 0 -88 11 -124 32l-36 -55h-55l54 81c-54 48 -86 120 -86 202c0 145 99 260 247 260c47 0 89 -12 125 -32l36 54h54zM147 250c0 -45 12 -85 36 -114l171 257
c-20 12 -43 19 -69 19c-87 0 -138 -72 -138 -162zM285 88c86 0 138 72 138 162c0 44 -12 84 -35 113l-171 -257c19 -12 42 -18 68 -18z" />
    <glyph glyph-name="otilde" unicode="&#xf5;" horiz-adv-x="570" 
d="M353 578c-39 0 -70 17 -96 56c-11 17 -22 25 -38 25c-28 0 -42 -30 -31 -72h-68c-14 81 31 138 96 138c43 0 75 -23 97 -56c10 -17 21 -25 38 -25c28 0 41 29 31 72h67c15 -79 -27 -138 -96 -138zM285 -10c-148 0 -247 115 -247 260s99 260 247 260s247 -115 247 -260
s-99 -260 -247 -260zM285 88c86 0 138 72 138 162s-52 162 -138 162c-87 0 -138 -72 -138 -162s51 -162 138 -162z" />
    <glyph glyph-name="oe" unicode="&#x153;" horiz-adv-x="927" 
d="M889 246c0 -10 0 -21 -2 -31h-354c9 -80 53 -129 135 -129c55 0 87 17 128 81l77 -54c-41 -77 -111 -123 -209 -123c-84 0 -148 33 -189 88c-44 -54 -110 -88 -190 -88c-148 0 -247 115 -247 260s99 260 247 260c81 0 147 -34 191 -89c41 55 105 89 188 89
c145 0 225 -109 225 -264zM666 415c-74 0 -117 -44 -130 -115h253c-10 72 -51 115 -123 115zM285 88c86 0 138 72 138 162s-52 162 -138 162c-87 0 -138 -72 -138 -162s51 -162 138 -162z" />
    <glyph glyph-name="p" unicode="p" horiz-adv-x="592" 
d="M325 510c142 0 229 -114 229 -260s-87 -260 -229 -260c-59 0 -109 23 -146 61v-301h-109v750h109v-51c37 38 87 61 146 61zM307 88c87 0 139 72 139 162s-52 162 -139 162c-59 0 -108 -43 -128 -104v-116c20 -61 69 -104 128 -104z" />
    <glyph glyph-name="thorn" unicode="&#xfe;" horiz-adv-x="647" 
d="M359 510c140 0 250 -115 250 -260s-110 -260 -250 -260c-74 0 -136 33 -178 86v-325h-111v999h111v-326c42 53 104 86 178 86zM343 88c90 0 162 72 162 162s-72 162 -162 162c-89 0 -161 -72 -161 -162s72 -162 161 -162z" />
    <glyph glyph-name="q" unicode="q" horiz-adv-x="592" 
d="M414 500h108v-750h-108v302c-37 -39 -88 -62 -147 -62c-142 0 -229 114 -229 260s87 260 229 260c59 0 110 -23 147 -62v52zM285 88c59 0 109 43 129 104v116c-20 61 -70 104 -129 104c-87 0 -138 -72 -138 -162s51 -162 138 -162z" />
    <glyph glyph-name="r" unicode="r" horiz-adv-x="420" 
d="M319 510c62 0 92 -12 121 -37l-53 -79c-10 6 -34 18 -74 18c-68 0 -132 -58 -132 -144v-268h-111v500h101l6 -70c36 48 87 80 142 80z" />
    <glyph glyph-name="racute" unicode="&#x155;" horiz-adv-x="420" 
d="M382 750l-113 -160h-87l87 160h113zM319 510c62 0 92 -12 121 -37l-53 -79c-10 6 -34 18 -74 18c-68 0 -132 -58 -132 -144v-268h-111v500h101l6 -70c36 48 87 80 142 80z" />
    <glyph glyph-name="rcaron" unicode="&#x159;" horiz-adv-x="420" 
d="M282 579h-117l-103 171h84l78 -119l78 119h84zM319 510c62 0 92 -12 121 -37l-53 -79c-10 6 -34 18 -74 18c-68 0 -132 -58 -132 -144v-268h-111v500h101l6 -70c36 48 87 80 142 80z" />
    <glyph glyph-name="rcommaaccent" unicode="&#x157;" horiz-adv-x="420" 
d="M319 510c62 0 92 -12 121 -37l-53 -79c-10 6 -34 18 -74 18c-68 0 -132 -58 -132 -144v-268h-111v500h101l6 -70c36 48 87 80 142 80zM127 -40c39 0 68 -31 68 -75c0 -102 -47 -190 -126 -186v40c58 1 70 85 57 85c-39 0 -67 28 -67 68c0 39 28 68 68 68z" />
    <glyph glyph-name="s" unicode="s" horiz-adv-x="480" 
d="M244 -10c-79 0 -167 30 -209 71l55 77c27 -32 95 -56 148 -58c55 -2 95 20 95 56c0 41 -49 58 -106 76c-77 25 -168 52 -168 145c0 89 85 153 191 153c66 0 139 -23 184 -55l-60 -77c-26 23 -68 40 -104 44c-46 5 -98 -14 -98 -51c0 -41 52 -56 110 -74
c76 -23 163 -51 163 -149c0 -92 -85 -158 -201 -158z" />
    <glyph glyph-name="sacute" unicode="&#x15b;" horiz-adv-x="480" 
d="M200 590l87 160h113l-113 -160h-87zM244 -10c-79 0 -167 30 -209 71l55 77c27 -32 95 -56 148 -58c55 -2 95 20 95 56c0 41 -49 58 -106 76c-77 25 -168 52 -168 145c0 89 85 153 191 153c66 0 139 -23 184 -55l-60 -77c-26 23 -68 40 -104 44c-46 5 -98 -14 -98 -51
c0 -41 52 -56 110 -74c76 -23 163 -51 163 -149c0 -92 -85 -158 -201 -158z" />
    <glyph glyph-name="scaron" unicode="&#x161;" horiz-adv-x="480" 
d="M183 579l-103 171h84l78 -119l78 119h84l-104 -171h-117zM244 -10c-79 0 -167 30 -209 71l55 77c27 -32 95 -56 148 -58c55 -2 95 20 95 56c0 41 -49 58 -106 76c-77 25 -168 52 -168 145c0 89 85 153 191 153c66 0 139 -23 184 -55l-60 -77c-26 23 -68 40 -104 44
c-46 5 -98 -14 -98 -51c0 -41 52 -56 110 -74c76 -23 163 -51 163 -149c0 -92 -85 -158 -201 -158z" />
    <glyph glyph-name="scedilla" unicode="&#x15f;" horiz-adv-x="480" 
d="M445 148c0 -84 -71 -146 -171 -157l-29 -55c68 13 122 -28 122 -91c0 -58 -46 -105 -105 -105c-47 0 -98 30 -116 68l50 19c13 -19 42 -34 66 -34c29 0 51 23 51 52c0 43 -41 61 -93 39l-43 27l42 80c-72 5 -146 33 -184 70l55 77c27 -32 95 -56 148 -58
c55 -2 95 20 95 56c0 41 -49 58 -106 76c-77 25 -168 52 -168 145c0 89 85 153 191 153c66 0 139 -23 184 -55l-60 -77c-26 23 -68 40 -104 44c-46 5 -98 -14 -98 -51c0 -41 52 -56 110 -74c76 -23 163 -51 163 -149z" />
    <glyph glyph-name="scommaaccent" unicode="&#x219;" horiz-adv-x="480" 
d="M244 -10c-79 0 -167 30 -209 71l55 77c27 -32 95 -56 148 -58c55 -2 95 20 95 56c0 41 -49 58 -106 76c-77 25 -168 52 -168 145c0 89 85 153 191 153c66 0 139 -23 184 -55l-60 -77c-26 23 -68 40 -104 44c-46 5 -98 -14 -98 -51c0 -41 52 -56 110 -74
c76 -23 163 -51 163 -149c0 -92 -85 -158 -201 -158zM194 -301v40c58 1 70 85 57 85c-39 0 -67 28 -67 68c0 39 28 68 68 68c39 0 68 -31 68 -75c0 -102 -47 -190 -126 -186z" />
    <glyph glyph-name="uni1E63" unicode="&#x1e63;" horiz-adv-x="480" 
d="M244 -10c-79 0 -167 30 -209 71l55 77c27 -32 95 -56 148 -58c55 -2 95 20 95 56c0 41 -49 58 -106 76c-77 25 -168 52 -168 145c0 89 85 153 191 153c66 0 139 -23 184 -55l-60 -77c-26 23 -68 40 -104 44c-46 5 -98 -14 -98 -51c0 -41 52 -56 110 -74
c76 -23 163 -51 163 -149c0 -92 -85 -158 -201 -158zM251 -196c-37 0 -68 31 -68 68s31 68 68 68s68 -31 68 -68s-31 -68 -68 -68z" />
    <glyph glyph-name="germandbls" unicode="&#xdf;" horiz-adv-x="683" 
d="M505 388c67 -39 111 -107 111 -188c0 -117 -89 -210 -200 -210c-54 0 -128 22 -167 56l45 85c23 -20 65 -38 101 -38c57 2 109 49 109 113c0 68 -57 123 -128 123h-49v92h20c67 0 121 53 121 119c0 65 -54 112 -130 112c-80 0 -140 -53 -140 -125v-527h-111v527
c0 129 108 223 250 223c137 0 236 -89 236 -208c0 -62 -26 -116 -68 -154z" />
    <glyph glyph-name="t" unicode="t" horiz-adv-x="376" 
d="M315 109l61 -75c-27 -28 -67 -44 -119 -44c-107 0 -174 69 -174 170v255h-61v85h61v170h111v-170h142v-85h-141v-255c0 -51 24 -75 65 -75c22 0 39 6 55 24z" />
    <glyph glyph-name="tbar" unicode="&#x167;" horiz-adv-x="376" 
d="M315 109l61 -75c-27 -28 -67 -44 -119 -44c-107 0 -174 69 -174 170v51h-60v78h60v126h-61v85h61v170h111v-170h142v-85h-141v-126h143v-78h-143v-51c0 -51 24 -75 65 -75c22 0 39 6 55 24z" />
    <glyph glyph-name="tcaron" unicode="&#x165;" horiz-adv-x="402" 
d="M335 697c-37 0 -67 30 -67 68s30 67 68 67c52 0 76 -51 76 -111c0 -88 -49 -195 -134 -196v52c42 1 67 65 67 99c0 13 -3 21 -10 21zM260 85c22 0 39 6 55 24l61 -75c-27 -28 -67 -44 -119 -44c-107 0 -174 69 -174 170v255h-61v85h61v170h111v-170h142v-85h-141v-255
c0 -51 24 -75 65 -75z" />
    <glyph glyph-name="uni0163" unicode="&#x163;" horiz-adv-x="376" 
d="M257 -10l-28 -54c68 13 122 -28 122 -91c0 -58 -46 -105 -105 -105c-47 0 -98 30 -116 68l50 19c13 -19 42 -34 66 -34c29 0 51 23 51 52c0 43 -41 61 -93 39l-43 27l45 85c-77 19 -123 80 -123 164v255h-61v85h61v170h111v-170h142v-85h-141v-255c0 -51 24 -75 65 -75
c22 0 39 6 55 24l61 -75c-27 -28 -67 -44 -119 -44z" />
    <glyph glyph-name="uni021B" unicode="&#x21b;" horiz-adv-x="376" 
d="M315 109l61 -75c-27 -28 -67 -44 -119 -44c-107 0 -174 69 -174 170v255h-61v85h61v170h111v-170h142v-85h-141v-255c0 -51 24 -75 65 -75c22 0 39 6 55 24zM236 -40c39 0 68 -31 68 -75c0 -102 -47 -190 -126 -186v40c58 1 70 85 57 85c-39 0 -67 28 -67 68
c0 39 28 68 68 68z" />
    <glyph glyph-name="uni1E6D" unicode="&#x1e6d;" horiz-adv-x="376" 
d="M315 109l61 -75c-27 -28 -67 -44 -119 -44c-107 0 -174 69 -174 170v255h-61v85h61v170h111v-170h142v-85h-141v-255c0 -51 24 -75 65 -75c22 0 39 6 55 24zM235 -60c37 0 68 -31 68 -68s-31 -68 -68 -68s-68 31 -68 68s31 68 68 68z" />
    <glyph glyph-name="u" unicode="u" horiz-adv-x="602" 
d="M421 500h111v-500h-101l-6 60c-37 -43 -92 -70 -154 -70c-113 0 -199 89 -199 200v310h111v-297c0 -64 51 -115 117 -115s121 51 121 115v297z" />
    <glyph glyph-name="uacute" unicode="&#xfa;" horiz-adv-x="602" 
d="M460 750l-113 -160h-87l87 160h113zM421 500h111v-500h-101l-6 60c-37 -43 -92 -70 -154 -70c-113 0 -199 89 -199 200v310h111v-297c0 -64 51 -115 117 -115s121 51 121 115v297z" />
    <glyph glyph-name="uni01D4" unicode="&#x1d4;" horiz-adv-x="602" 
d="M360 579h-117l-103 171h84l78 -119l78 119h84zM421 500h111v-500h-101l-6 60c-37 -43 -92 -70 -154 -70c-113 0 -199 89 -199 200v310h111v-297c0 -64 51 -115 117 -115s121 51 121 115v297z" />
    <glyph glyph-name="ucircumflex" unicode="&#xfb;" horiz-adv-x="602" 
d="M302 699l-75 -120h-87l103 171h117l104 -171h-88zM421 500h111v-500h-101l-6 60c-37 -43 -92 -70 -154 -70c-113 0 -199 89 -199 200v310h111v-297c0 -64 51 -115 117 -115s121 51 121 115v297z" />
    <glyph glyph-name="udieresis" unicode="&#xfc;" horiz-adv-x="602" 
d="M202 590c-37 0 -68 30 -68 67c0 38 31 68 68 68s68 -30 68 -68c0 -37 -31 -67 -68 -67zM402 590c-37 0 -68 30 -68 67c0 38 31 68 68 68s67 -30 67 -68c0 -37 -30 -67 -67 -67zM421 500h111v-500h-101l-6 60c-37 -43 -92 -70 -154 -70c-113 0 -199 89 -199 200v310h111
v-297c0 -64 51 -115 117 -115s121 51 121 115v297z" />
    <glyph glyph-name="ugrave" unicode="&#xf9;" horiz-adv-x="602" 
d="M340 590h-86l-114 160h113zM421 500h111v-500h-101l-6 60c-37 -43 -92 -70 -154 -70c-113 0 -199 89 -199 200v310h111v-297c0 -64 51 -115 117 -115s121 51 121 115v297z" />
    <glyph glyph-name="uhungarumlaut" unicode="&#x171;" horiz-adv-x="602" 
d="M419 750l-170 -176h-80l144 176h106zM435 574h-80l144 176h106zM421 203v297h111v-500h-101l-6 60c-37 -43 -92 -70 -154 -70c-113 0 -199 89 -199 200v310h111v-297c0 -64 51 -115 117 -115s121 51 121 115z" />
    <glyph glyph-name="umacron" unicode="&#x16b;" horiz-adv-x="602" 
d="M457 666v-72h-310v72h310zM421 500h111v-500h-101l-6 60c-37 -43 -92 -70 -154 -70c-113 0 -199 89 -199 200v310h111v-297c0 -64 51 -115 117 -115s121 51 121 115v297z" />
    <glyph glyph-name="uogonek" unicode="&#x173;" horiz-adv-x="602" 
d="M549 -153l36 -51c-40 -40 -93 -58 -147 -55c-69 4 -120 40 -120 108c0 63 43 116 117 151h-4l-6 60c-37 -43 -92 -70 -154 -70c-113 0 -199 89 -199 200v310h111v-297c0 -64 51 -115 117 -115s121 51 121 115v297h111v-500c-70 0 -138 -73 -138 -142c0 -34 22 -60 63 -60
c36 0 72 20 92 49z" />
    <glyph glyph-name="uring" unicode="&#x16f;" horiz-adv-x="602" 
d="M302 556c-60 0 -109 49 -109 108s49 108 109 108c59 0 107 -49 107 -108s-48 -108 -107 -108zM302 725c-33 0 -59 -28 -59 -61c0 -35 26 -60 59 -60s59 25 59 60c0 33 -26 61 -59 61zM421 500h111v-500h-101l-6 60c-37 -43 -92 -70 -154 -70c-113 0 -199 89 -199 200v310
h111v-297c0 -64 51 -115 117 -115s121 51 121 115v297z" />
    <glyph glyph-name="v" unicode="v" horiz-adv-x="517" 
d="M393 500h119l-201 -500h-106l-200 500h119l135 -368z" />
    <glyph glyph-name="w" unicode="w" horiz-adv-x="732" 
d="M603 500h124l-171 -500h-120l-72 203l-68 -203h-119l-172 500h126l113 -367l70 214l-54 153h108l121 -369z" />
    <glyph glyph-name="wacute" unicode="&#x1e83;" horiz-adv-x="732" 
d="M478 750l-113 -160h-87l87 160h113zM603 500h124l-171 -500h-120l-72 203l-68 -203h-119l-172 500h126l113 -367l70 214l-54 153h108l121 -369z" />
    <glyph glyph-name="wcircumflex" unicode="&#x175;" horiz-adv-x="732" 
d="M320 699l-75 -120h-87l103 171h117l104 -171h-88zM603 500h124l-171 -500h-120l-72 203l-68 -203h-119l-172 500h126l113 -367l70 214l-54 153h108l121 -369z" />
    <glyph glyph-name="wdieresis" unicode="&#x1e85;" horiz-adv-x="732" 
d="M220 590c-37 0 -68 30 -68 67c0 38 31 68 68 68s68 -30 68 -68c0 -37 -31 -67 -68 -67zM420 590c-37 0 -68 30 -68 67c0 38 31 68 68 68s67 -30 67 -68c0 -37 -30 -67 -67 -67zM603 500h124l-171 -500h-120l-72 203l-68 -203h-119l-172 500h126l113 -367l70 214l-54 153
h108l121 -369z" />
    <glyph glyph-name="wgrave" unicode="&#x1e81;" horiz-adv-x="732" 
d="M358 590h-86l-114 160h113zM603 500h124l-171 -500h-120l-72 203l-68 -203h-119l-172 500h126l113 -367l70 214l-54 153h108l121 -369z" />
    <glyph glyph-name="x" unicode="x" horiz-adv-x="533" 
d="M543 500l-209 -251l209 -249h-135l-141 169l-142 -169h-135l209 250l-209 250h133l143 -170l143 170h134z" />
    <glyph glyph-name="y" unicode="y" horiz-adv-x="603" 
d="M532 500l1 -500c0 -146 -92 -254 -258 -254c-75 0 -128 15 -173 39v119c44 -34 101 -60 182 -60c87 0 137 55 137 156v55c-38 -40 -90 -65 -150 -65c-113 0 -199 89 -199 200v310h111v-297c0 -64 51 -115 117 -115s121 51 121 115v297h111z" />
    <glyph glyph-name="yacute" unicode="&#xfd;" horiz-adv-x="603" 
d="M460 750l-113 -160h-87l87 160h113zM532 500l1 -500c0 -146 -92 -254 -258 -254c-75 0 -128 15 -173 39v119c44 -34 101 -60 182 -60c87 0 137 55 137 156v55c-38 -40 -90 -65 -150 -65c-113 0 -199 89 -199 200v310h111v-297c0 -64 51 -115 117 -115s121 51 121 115v297
h111z" />
    <glyph glyph-name="ycircumflex" unicode="&#x177;" horiz-adv-x="603" 
d="M302 699l-75 -120h-87l103 171h117l104 -171h-88zM532 500l1 -500c0 -146 -92 -254 -258 -254c-75 0 -128 15 -173 39v119c44 -34 101 -60 182 -60c87 0 137 55 137 156v55c-38 -40 -90 -65 -150 -65c-113 0 -199 89 -199 200v310h111v-297c0 -64 51 -115 117 -115
s121 51 121 115v297h111z" />
    <glyph glyph-name="ydieresis" unicode="&#xff;" horiz-adv-x="603" 
d="M202 590c-37 0 -68 30 -68 67c0 38 31 68 68 68s68 -30 68 -68c0 -37 -31 -67 -68 -67zM402 590c-37 0 -68 30 -68 67c0 38 31 68 68 68s67 -30 67 -68c0 -37 -30 -67 -67 -67zM532 500l1 -500c0 -146 -92 -254 -258 -254c-75 0 -128 15 -173 39v119
c44 -34 101 -60 182 -60c87 0 137 55 137 156v55c-38 -40 -90 -65 -150 -65c-113 0 -199 89 -199 200v310h111v-297c0 -64 51 -115 117 -115s121 51 121 115v297h111z" />
    <glyph glyph-name="ygrave" unicode="&#x1ef3;" horiz-adv-x="603" 
d="M340 590h-86l-114 160h113zM532 500l1 -500c0 -146 -92 -254 -258 -254c-75 0 -128 15 -173 39v119c44 -34 101 -60 182 -60c87 0 137 55 137 156v55c-38 -40 -90 -65 -150 -65c-113 0 -199 89 -199 200v310h111v-297c0 -64 51 -115 117 -115s121 51 121 115v297h111z
" />
    <glyph glyph-name="z" unicode="z" horiz-adv-x="542" 
d="M54 0v80l285 328h-281v92h425v-78l-286 -330h291v-92h-434z" />
    <glyph glyph-name="zacute" unicode="&#x17a;" horiz-adv-x="542" 
d="M242 590l87 160h113l-113 -160h-87zM54 0v80l285 328h-281v92h425v-78l-286 -330h291v-92h-434z" />
    <glyph glyph-name="zcaron" unicode="&#x17e;" horiz-adv-x="542" 
d="M225 579l-103 171h84l78 -119l78 119h84l-104 -171h-117zM54 0v80l285 328h-281v92h425v-78l-286 -330h291v-92h-434z" />
    <glyph glyph-name="zdotaccent" unicode="&#x17c;" horiz-adv-x="542" 
d="M284 590c-37 0 -68 30 -68 67c0 38 31 68 68 68s68 -30 68 -68c0 -37 -31 -67 -68 -67zM54 0v80l285 328h-281v92h425v-78l-286 -330h291v-92h-434z" />
    <glyph glyph-name="uni1E93" unicode="&#x1e93;" horiz-adv-x="542" 
d="M54 0v80l285 328h-281v92h425v-78l-286 -330h291v-92h-434zM271 -196c-37 0 -68 31 -68 68s31 68 68 68s68 -31 68 -68s-31 -68 -68 -68z" />
    <glyph glyph-name="ordfeminine" unicode="&#xaa;" horiz-adv-x="412" 
d="M301 750h56v-300h-56v58c-25 -39 -67 -64 -118 -64c-83 0 -151 69 -151 156c0 86 68 156 151 156c51 0 93 -26 118 -65v59zM194 493c59 0 107 48 107 107c0 58 -48 106 -107 106s-106 -48 -106 -106c0 -59 47 -107 106 -107z" />
    <glyph glyph-name="ordmasculine" unicode="&#xba;" horiz-adv-x="389" 
d="M194 444c-90 0 -162 69 -162 156c0 86 72 156 162 156c91 0 163 -70 163 -156c0 -87 -72 -156 -163 -156zM194 493c59 0 107 48 107 107c0 58 -48 106 -107 106s-106 -48 -106 -106c0 -59 47 -107 106 -107z" />
    <glyph glyph-name="uni0394" unicode="&#x394;" horiz-adv-x="789" 
d="M36 0v63l297 695h127l292 -694v-64h-716zM149 91h484l-160 372c-21 55 -63 153 -77 198h-9c-9 -32 -48 -124 -69 -179z" />
    <glyph glyph-name="Lambda" unicode="&#x39b;" horiz-adv-x="762" 
d="M746 0h-125l-240 621l-241 -621h-125l301 750h129z" />
    <glyph glyph-name="Xi" unicode="&#x39e;" horiz-adv-x="600" 
d="M74 649v101h437v-101h-437zM129 324v102h328v-102h-328zM74 0v101h437v-101h-437z" />
    <glyph glyph-name="uni03A9" unicode="&#x3a9;" horiz-adv-x="881" 
d="M57 0v81h155v6c-70 58 -138 171 -138 309c0 201 152 356 369 356c225 0 363 -170 363 -354c0 -135 -69 -253 -140 -311v-6h157v-81h-302v60c92 49 178 161 178 320c0 147 -91 290 -255 290c-158 0 -263 -127 -263 -291c0 -155 88 -274 178 -319v-60h-302z" />
    <glyph glyph-name="uni03BC" unicode="&#x3bc;" horiz-adv-x="633" 
d="M426 500h111v-500h-111v66c-37 -47 -92 -76 -153 -76c-42 0 -81 13 -113 36v-276h-83v750h111v-297c0 -64 52 -115 116 -115c68 0 122 51 122 115v297z" />
    <glyph glyph-name="pi" unicode="&#x3c0;" horiz-adv-x="702" 
d="M75 0c41 113 77 323 82 465c-69 0 -107 -4 -134 -13l-12 65c29 18 83 31 177 31h491l-9 -83h-95v-301c0 -82 6 -130 16 -164h-102c-14 22 -19 78 -19 154v311l-209 1c-6 -131 -41 -368 -84 -466h-102z" />
    <glyph glyph-name="zero" unicode="0" horiz-adv-x="682" 
d="M341 -10c-159 0 -274 162 -274 385s115 385 274 385c158 0 273 -162 273 -385s-115 -385 -273 -385zM342 88c92 0 161 122 161 287s-69 287 -161 287c-93 0 -163 -122 -163 -287s70 -287 163 -287z" />
    <glyph glyph-name="one" unicode="1" horiz-adv-x="420" 
d="M191 0v617l-151 -120v133l160 120h102v-750h-111z" />
    <glyph glyph-name="two" unicode="2" horiz-adv-x="587" 
d="M45 0v79c332 346 369 384 369 460c0 84 -58 122 -122 123c-71 1 -126 -48 -124 -128l-107 1c-6 135 104 226 236 226c124 -1 221 -83 224 -209c3 -120 -57 -178 -326 -454h347v-98h-497z" />
    <glyph glyph-name="three" unicode="3" horiz-adv-x="603" 
d="M408 423c76 -37 127 -109 127 -196c0 -132 -105 -237 -239 -237c-133 0 -239 97 -239 218l110 1c0 -64 57 -115 129 -115c74 0 130 59 130 134s-56 133 -130 133h-59l-1 89h53h1c59 0 105 47 105 107c0 57 -46 100 -105 100c-55 0 -99 -40 -99 -91l-107 2
c0 107 90 192 206 192c115 0 205 -85 205 -192c0 -62 -33 -114 -87 -145z" />
    <glyph glyph-name="four" unicode="4" horiz-adv-x="620" 
d="M563 256v-98h-73v-158h-111v158h-359v71l331 521h139v-494h73zM148 256h231v381z" />
    <glyph glyph-name="five" unicode="5" horiz-adv-x="620" 
d="M304 -10c-93 0 -181 40 -234 105l71 77c36 -50 96 -80 157 -80c89 0 153 65 153 154c0 90 -66 157 -154 157c-48 0 -98 -21 -132 -57l-92 42l40 360h403v-98h-316l-25 -199c37 32 93 50 151 50c138 0 236 -105 236 -251c0 -154 -107 -260 -258 -260z" />
    <glyph glyph-name="six" unicode="6" horiz-adv-x="653" 
d="M596 256c3 -145 -116 -260 -262 -265c-149 -4 -272 107 -276 251c-2 65 24 125 63 175l254 333h129l-194 -245c12 1 27 1 40 1c135 -7 242 -117 246 -250zM333 86c92 4 158 79 154 169c-4 91 -75 160 -167 156c-92 -3 -156 -79 -152 -169c3 -90 73 -160 165 -156z" />
    <glyph glyph-name="seven" unicode="7" horiz-adv-x="566" 
d="M53 0l369 652h-382v98h506v-78l-370 -672h-123z" />
    <glyph glyph-name="eight" unicode="8" horiz-adv-x="585" 
d="M420 417c74 -38 122 -110 122 -196c0 -130 -107 -231 -250 -231c-141 0 -249 101 -249 231c0 86 48 158 122 196c-48 34 -78 88 -78 151c0 108 88 192 206 192c117 0 205 -84 205 -192c0 -63 -30 -117 -78 -151zM293 671c-63 0 -112 -48 -112 -111s49 -112 112 -112
c62 0 111 49 111 112s-49 111 -111 111zM292 88c78 0 138 63 138 141s-60 137 -138 137c-77 0 -137 -59 -137 -137s60 -141 137 -141z" />
    <glyph glyph-name="nine" unicode="9" horiz-adv-x="653" 
d="M596 508c2 -65 -24 -125 -62 -175l-255 -333h-129l198 248c-13 -5 -29 -5 -44 -4c-135 7 -242 117 -246 250c-4 145 116 260 262 265c149 4 272 -107 276 -251zM333 339c92 3 157 79 153 169c-4 89 -74 160 -166 156s-158 -79 -154 -169c4 -91 75 -160 167 -156z" />
    <glyph glyph-name="fraction" unicode="&#x2044;" horiz-adv-x="608" 
d="M-21 0l523 750h113l-523 -750h-113z" />
    <glyph glyph-name="uni00B9" unicode="&#xb9;" horiz-adv-x="269" 
d="M95 375v326h-55v49h111v-375h-56z" />
    <glyph glyph-name="uni00B2" unicode="&#xb2;" horiz-adv-x="339" 
d="M45 380v40c166 173 184 192 184 229c0 42 -29 61 -61 62c-36 0 -63 -24 -62 -64h-54c-2 68 53 113 119 113c62 0 110 -41 112 -103c1 -61 -28 -90 -163 -228h174v-49h-249z" />
    <glyph glyph-name="uni00B3" unicode="&#xb3;" horiz-adv-x="364" 
d="M233 592c38 -19 63 -54 63 -98c0 -66 -52 -119 -119 -119s-120 48 -120 109l55 1c0 -32 29 -58 65 -58s64 30 64 67c0 38 -28 66 -64 66h-30v45h26c30 0 52 23 52 54c0 28 -22 49 -52 49c-27 0 -49 -20 -49 -45l-54 1c0 54 46 96 103 96s103 -42 103 -96
c0 -31 -16 -57 -43 -72z" />
    <glyph glyph-name="asterisk" unicode="*" horiz-adv-x="350" 
d="M136 498l-50 30l55 76l-94 -10v59l94 -10l-55 76l50 30l39 -86l39 86l51 -30l-56 -76l94 10v-59l-94 10l56 -76l-51 -30l-39 86z" />
    <glyph glyph-name="backslash" unicode="\" horiz-adv-x="607" 
d="M509 -250l-530 1000h106l529 -1000h-105z" />
    <glyph glyph-name="periodcentered" unicode="&#xb7;" horiz-adv-x="279" 
d="M139 308c-28 0 -52 22 -52 52c0 28 24 52 52 52s53 -24 53 -52c0 -30 -25 -52 -53 -52z" />
    <glyph glyph-name="bullet" unicode="&#x2022;" horiz-adv-x="493" 
d="M247 187c-75 0 -140 61 -140 139c0 75 65 140 140 140c74 0 139 -65 139 -140c0 -78 -65 -139 -139 -139z" />
    <glyph glyph-name="colon" unicode=":" horiz-adv-x="310" 
d="M155 374c-37 0 -68 31 -68 68s31 68 68 68s68 -31 68 -68s-31 -68 -68 -68zM155 -10c-37 0 -68 31 -68 68s31 68 68 68s68 -31 68 -68s-31 -68 -68 -68z" />
    <glyph glyph-name="comma" unicode="," horiz-adv-x="224" 
d="M48 -181v52c45 0 71 60 71 95c0 15 -5 25 -14 25c-37 0 -67 30 -67 67c0 38 30 68 68 68c55 0 80 -52 80 -114c0 -87 -51 -193 -138 -193z" />
    <glyph glyph-name="ellipsis" unicode="&#x2026;" horiz-adv-x="723" 
d="M98 -10c-37 0 -68 31 -68 68s31 68 68 68s68 -31 68 -68s-31 -68 -68 -68zM311 -10c-37 0 -68 31 -68 68s31 68 68 68s68 -31 68 -68s-31 -68 -68 -68zM511 -10c-37 0 -68 31 -68 68s31 68 68 68s68 -31 68 -68s-31 -68 -68 -68z" />
    <glyph glyph-name="exclam" unicode="!" horiz-adv-x="310" 
d="M112 232l-13 518h111l-13 -518h-85zM155 -10c-37 0 -68 31 -68 68c0 38 31 68 68 68s68 -30 68 -68c0 -37 -31 -68 -68 -68z" />
    <glyph glyph-name="exclamdown" unicode="&#xa1;" horiz-adv-x="310" 
d="M155 364c-37 0 -68 30 -68 68c0 37 31 68 68 68s68 -31 68 -68c0 -38 -31 -68 -68 -68zM99 -250l13 518h85l13 -518h-111z" />
    <glyph glyph-name="numbersign" unicode="#" horiz-adv-x="802" 
d="M180 0l24 170h-141l11 81h141l32 214h-142l13 80h139l25 172h79l-23 -172h179l24 172h80l-24 -172h142l-13 -80h-140l-30 -214h140l-11 -81h-140l-26 -170h-79l24 170h-181l-23 -170h-80zM296 251h179l31 214h-180z" />
    <glyph glyph-name="period" unicode="." horiz-adv-x="196" 
d="M98 -10c-37 0 -68 31 -68 68s31 68 68 68s68 -31 68 -68s-31 -68 -68 -68z" />
    <glyph glyph-name="question" unicode="?" horiz-adv-x="573" 
d="M236 216v55c0 196 181 110 181 269c0 69 -56 119 -131 119c-78 0 -133 -57 -130 -132h-99c-5 130 94 229 229 229c131 0 229 -93 229 -216c0 -200 -178 -153 -178 -260v-64h-101zM290 -10c-37 0 -68 30 -68 68c0 37 31 68 68 68s68 -31 68 -68c0 -38 -31 -68 -68 -68z
" />
    <glyph glyph-name="questiondown" unicode="&#xbf;" horiz-adv-x="568" 
d="M280 517c37 0 68 -30 68 -68c0 -37 -31 -68 -68 -68s-68 31 -68 68c0 38 31 68 68 68zM334 291v-55c0 -196 -181 -110 -181 -269c0 -69 56 -119 131 -119c78 0 133 57 130 132h99c5 -130 -94 -229 -229 -229c-131 0 -229 93 -229 216c0 200 178 153 178 260v64h101z" />
    <glyph glyph-name="quotedbl" unicode="&#x22;" horiz-adv-x="465" 
d="M100 464l-13 286h105l-13 -286h-79zM286 464l-13 286h105l-13 -286h-79z" />
    <glyph glyph-name="quotesingle" unicode="'" horiz-adv-x="279" 
d="M100 464l-13 286h105l-13 -286h-79z" />
    <glyph glyph-name="semicolon" unicode=";" horiz-adv-x="316" 
d="M156 374c-37 0 -68 31 -68 68s31 68 68 68s68 -31 68 -68s-31 -68 -68 -68zM98 -181v52c58 2 83 120 57 120c-37 0 -67 30 -67 67c0 38 30 68 68 68c128 0 85 -305 -58 -307z" />
    <glyph glyph-name="slash" unicode="/" horiz-adv-x="607" 
d="M-21 -250l530 1000h105l-529 -1000h-106z" />
    <glyph glyph-name="underscore" unicode="_" horiz-adv-x="674" 
d="M87 -75v75h500v-75h-500z" />
    <glyph glyph-name="braceleft" unicode="{" horiz-adv-x="340" 
d="M235 -336c-65 0 -113 63 -113 144v247c0 97 -10 129 -75 159v70c66 31 75 62 75 159v242c0 81 48 144 113 144h55v-76c-63 0 -82 -8 -82 -73v-252c0 -77 -11 -136 -63 -179c52 -43 63 -102 63 -179v-257c0 -49 15 -67 82 -67v-82h-55z" />
    <glyph glyph-name="braceright" unicode="}" horiz-adv-x="340" 
d="M50 -336v82c67 0 82 18 82 67v257c0 77 11 136 63 179c-52 43 -63 102 -63 179v252c0 65 -19 73 -82 73v81h56c64 0 112 -63 112 -144v-247c0 -97 10 -128 75 -159v-70c-65 -30 -75 -60 -75 -159v-247c0 -81 -48 -144 -112 -144h-56z" />
    <glyph glyph-name="bracketleft" unicode="[" horiz-adv-x="281" 
d="M75 -353v1206h226v-83h-129v-1040h129v-83h-226z" />
    <glyph glyph-name="bracketright" unicode="]" horiz-adv-x="281" 
d="M75 -353v83h129v1040h-129v83h226v-1206h-226z" />
    <glyph glyph-name="parenleft" unicode="(" horiz-adv-x="409" 
d="M349 -335c-158 7 -282 206 -282 583c0 378 124 580 282 587v-80c-103 -9 -184 -186 -184 -507c0 -319 81 -494 184 -503v-80z" />
    <glyph glyph-name="parenright" unicode=")" horiz-adv-x="409" 
d="M60 -335v80c103 9 184 184 184 503c0 321 -81 498 -184 507v80c158 -7 282 -209 282 -587c0 -377 -124 -576 -282 -583z" />
    <glyph glyph-name="emdash" unicode="&#x2014;" horiz-adv-x="1017" 
d="M9 222v76h1000v-76h-1000z" />
    <glyph glyph-name="endash" unicode="&#x2013;" horiz-adv-x="674" 
d="M87 222v76h500v-76h-500z" />
    <glyph glyph-name="hyphen" unicode="-" horiz-adv-x="524" 
d="M87 222v76h350v-76h-350z" />
    <glyph glyph-name="uni00AD" unicode="&#xad;" horiz-adv-x="600" 
d="M87 222v76h350v-76h-350z" />
    <glyph glyph-name="guillemotleft" unicode="&#xab;" horiz-adv-x="664" 
d="M260 95l-152 184l152 184h91l-152 -184l152 -184h-91zM465 95l-152 184l152 184h92l-152 -184l152 -184h-92z" />
    <glyph glyph-name="guillemotright" unicode="&#xbb;" horiz-adv-x="664" 
d="M107 95l152 184l-152 184h91l152 -184l-152 -184h-91zM312 95l152 184l-152 184h92l152 -184l-152 -184h-92z" />
    <glyph glyph-name="guilsinglleft" unicode="&#x2039;" horiz-adv-x="358" 
d="M200 95l-152 184l152 184h91l-152 -184l152 -184h-91z" />
    <glyph glyph-name="guilsinglright" unicode="&#x203a;" horiz-adv-x="358" 
d="M67 95l152 184l-152 184h91l152 -184l-152 -184h-91z" />
    <glyph glyph-name="quotedblbase" unicode="&#x201e;" horiz-adv-x="437" 
d="M48 -181v52c45 0 71 60 71 95c0 15 -5 25 -14 25c-37 0 -67 30 -67 67c0 38 30 68 68 68c55 0 80 -52 80 -114c0 -87 -51 -193 -138 -193zM241 -181v52c45 0 71 60 71 95c0 15 -5 25 -14 25c-37 0 -67 30 -67 67c0 38 30 68 68 68c55 0 80 -52 80 -114
c0 -87 -51 -193 -138 -193z" />
    <glyph glyph-name="quotedblleft" unicode="&#x201c;" horiz-adv-x="453" 
d="M249 766v-52c-42 -1 -67 -65 -67 -99c0 -13 3 -21 10 -21c37 0 67 -30 67 -68s-30 -67 -68 -67c-52 0 -76 51 -76 111c0 88 49 195 134 196zM419 766v-52c-42 -1 -67 -65 -67 -99c0 -13 3 -21 10 -21c37 0 67 -30 67 -68s-30 -67 -68 -67c-52 0 -76 51 -76 111
c0 88 49 195 134 196z" />
    <glyph glyph-name="quotedblright" unicode="&#x201d;" horiz-adv-x="422" 
d="M48 449v52c42 1 67 65 67 99c0 13 -3 21 -10 21c-37 0 -67 30 -67 68s30 67 68 67c52 0 76 -51 76 -111c0 -88 -49 -195 -134 -196zM218 449v52c42 1 67 65 67 99c0 13 -3 21 -10 21c-37 0 -67 30 -67 68s30 67 68 67c52 0 76 -51 76 -111c0 -88 -49 -195 -134 -196z" />
    <glyph glyph-name="quoteleft" unicode="&#x2018;" horiz-adv-x="259" 
d="M103 449c-128 0 -86 305 58 307v-52c-59 -2 -83 -120 -57 -120c37 0 67 -30 67 -68s-30 -67 -68 -67z" />
    <glyph glyph-name="quoteright" unicode="&#x2019;" horiz-adv-x="207" 
d="M46 449v52c42 1 67 65 67 99c0 13 -3 21 -10 21c-37 0 -67 30 -67 68s30 67 68 67c52 0 76 -51 76 -111c0 -88 -49 -195 -134 -196z" />
    <glyph glyph-name="quotesinglbase" unicode="&#x201a;" horiz-adv-x="254" 
d="M48 -181v52c45 0 71 60 71 95c0 15 -5 25 -14 25c-37 0 -67 30 -67 67c0 38 30 68 68 68c55 0 80 -52 80 -114c0 -87 -51 -193 -138 -193z" />
    <glyph glyph-name="space" unicode=" " horiz-adv-x="260" 
 />
    <glyph glyph-name="cent" unicode="&#xa2;" horiz-adv-x="513" 
d="M322 512c-90 0 -162 -72 -162 -162s72 -162 162 -162c46 0 92 13 124 42v-109c-33 -18 -72 -29 -113 -31v-91h-67v96c-125 25 -217 128 -217 255s92 230 217 255v96h67v-91c41 -2 79 -13 113 -31v-109c-32 29 -78 42 -124 42z" />
    <glyph glyph-name="currency" unicode="&#xa4;" horiz-adv-x="621" 
d="M130 121l-60 63l52 51c-54 76 -53 180 0 256l-51 50l60 63l52 -53c76 54 180 55 256 0l52 52l60 -60l-51 -51c54 -77 54 -181 0 -258l51 -50l-59 -63l-53 53c-76 -54 -181 -54 -257 0zM207 261c58 -57 149 -58 206 0c56 56 56 148 0 204c-57 56 -148 56 -205 -1
c-55 -56 -56 -148 -1 -203z" />
    <glyph glyph-name="dollar" unicode="$" horiz-adv-x="662" 
d="M584 213c0 -127 -102 -197 -207 -213v-84h-98v84c-94 16 -173 75 -209 145l81 49c29 -60 96 -106 181 -106s154 45 154 119c0 172 -387 100 -387 346c0 116 86 182 180 197v86h98v-87c63 -13 120 -46 158 -87l-65 -56c-32 36 -83 62 -139 62c-70 0 -133 -39 -133 -109
c0 -169 386 -102 386 -346z" />
    <glyph glyph-name="Euro" unicode="&#x20ac;" horiz-adv-x="672" 
d="M364 75c67 0 131 52 138 120l83 -35c-25 -98 -121 -170 -221 -170c-136 0 -232 98 -232 238v28h-95l36 72h59v86h-95l36 72h59v36c0 140 96 238 232 238c100 0 196 -72 221 -170l-83 -35c-7 68 -71 120 -138 120c-89 0 -147 -60 -147 -153v-36h211l-36 -72h-175v-86h211
l-36 -72h-175v-28c0 -93 58 -153 147 -153z" />
    <glyph glyph-name="florin" unicode="&#x192;" horiz-adv-x="463" 
d="M378 679c-51 0 -89 -36 -98 -91l-14 -88h138l-13 -85h-138l-106 -665h-100l105 665h-83l13 85h84l16 103c14 90 97 157 186 157c29 0 58 -9 70 -18l-10 -79c-12 11 -33 16 -50 16z" />
    <glyph glyph-name="sterling" unicode="&#xa3;" horiz-adv-x="619" 
d="M198 79h380v-79h-465v329h-80v74h80v119c0 139 96 238 232 238c100 0 196 -72 221 -170l-82 -36c-8 69 -72 120 -139 120c-89 0 -147 -60 -147 -152v-119h186v-74h-186v-250z" />
    <glyph glyph-name="yen" unicode="&#xa5;" horiz-adv-x="684" 
d="M646 750l-255 -386h192v-72h-192v-88h192v-67h-192v-137h-98v137h-190v67h190v88h-190v72h190l-256 386h105l200 -310l200 310h104z" />
    <glyph glyph-name="approxequal" unicode="&#x2248;" horiz-adv-x="584" 
d="M399 318c-67 0 -104 45 -132 76c-24 27 -45 45 -76 45c-52 0 -85 -49 -80 -109h-59c-9 100 53 168 140 168c55 0 88 -28 125 -73c20 -25 41 -48 77 -48c49 0 86 43 79 108h59c11 -95 -50 -167 -133 -167zM399 119c-67 0 -104 44 -132 75c-24 27 -45 45 -76 45
c-52 0 -85 -48 -80 -109h-59c-9 101 53 169 140 169c55 0 88 -29 125 -73c20 -26 41 -49 77 -49c49 0 86 43 79 109h59c11 -96 -50 -167 -133 -167z" />
    <glyph glyph-name="asciitilde" unicode="~" horiz-adv-x="561" 
d="M387 174c-67 0 -105 45 -132 75c-24 28 -45 46 -76 46c-52 0 -85 -49 -80 -110h-59c-9 99 52 169 139 169c54 0 90 -28 126 -73c21 -27 42 -49 77 -49c49 0 86 43 79 109h59c11 -95 -50 -167 -133 -167z" />
    <glyph glyph-name="divide" unicode="&#xf7;" horiz-adv-x="714" 
d="M357 384c-32 0 -61 26 -61 61c0 33 29 61 61 61c33 0 62 -28 62 -61c0 -35 -29 -61 -62 -61zM57 246v58h600v-58h-600zM357 44c-32 0 -61 26 -61 61c0 33 29 61 61 61c33 0 62 -28 62 -61c0 -35 -29 -61 -62 -61z" />
    <glyph glyph-name="emptyset" unicode="&#x2205;" horiz-adv-x="812" 
d="M633 486c45 -53 72 -121 72 -195c0 -165 -134 -299 -299 -299c-74 0 -142 27 -195 72l-43 -43l-32 32l43 43c-45 53 -72 121 -72 195c0 165 134 299 299 299c74 0 142 -27 195 -72l43 43l32 -32zM196 291c0 -50 17 -96 46 -132l296 296c-36 29 -82 46 -132 46
c-117 0 -210 -93 -210 -210zM406 81c117 0 210 93 210 210c0 50 -17 96 -46 132l-296 -296c36 -29 82 -46 132 -46z" />
    <glyph glyph-name="equal" unicode="=" horiz-adv-x="714" 
d="M57 326v72h600v-72h-600zM57 132v72h600v-72h-600z" />
    <glyph glyph-name="greater" unicode="&#x3e;" horiz-adv-x="726" 
d="M87 682l552 -277v-100l-552 -279v94l465 235l-465 234v93z" />
    <glyph glyph-name="greaterequal" unicode="&#x2265;" horiz-adv-x="786" 
d="M117 709l552 -251v-100l-552 -253v94l461 209l-461 208v93zM117 0v66h552v-66h-552z" />
    <glyph glyph-name="infinity" unicode="&#x221e;" horiz-adv-x="772" 
d="M203 138c-82 0 -143 64 -146 153c3 89 64 153 146 153c58 0 123 -36 183 -99c61 64 126 99 184 99c85 0 142 -60 145 -153c-3 -93 -60 -153 -145 -153c-58 0 -123 35 -184 99c-60 -63 -125 -99 -183 -99zM203 210c38 0 87 29 135 81c-48 52 -97 81 -135 81
c-40 0 -73 -35 -74 -81c1 -46 34 -81 74 -81zM569 210c41 0 73 33 74 81c-1 48 -33 81 -74 81c-39 0 -87 -29 -135 -81c48 -52 96 -81 135 -81z" />
    <glyph glyph-name="integral" unicode="&#x222b;" horiz-adv-x="459" 
d="M174 -189c-55 0 -95 45 -84 108h56c0 -36 8 -49 28 -49c14 0 26 11 26 29v754c0 52 39 88 87 88c53 0 94 -45 83 -108h-57c0 36 -7 49 -27 49c-14 0 -27 -11 -27 -29v-754c0 -52 -38 -88 -85 -88z" />
    <glyph glyph-name="less" unicode="&#x3c;" horiz-adv-x="726" 
d="M639 682v-93l-465 -234l465 -235v-94l-552 279v100z" />
    <glyph glyph-name="lessequal" unicode="&#x2264;" horiz-adv-x="786" 
d="M669 709v-93l-461 -208l461 -209v-94l-552 253v100zM117 0v66h552v-66h-552z" />
    <glyph glyph-name="logicalnot" unicode="&#xac;" horiz-adv-x="789" 
d="M630 110v256h-543v72h615v-328h-72z" />
    <glyph glyph-name="uni00B5" unicode="&#xb5;" horiz-adv-x="600" 
d="M426 500h111v-500h-111v66c-37 -47 -92 -76 -153 -76c-42 0 -81 13 -113 36v-276h-83v750h111v-297c0 -64 52 -115 116 -115c68 0 122 51 122 115v297z" />
    <glyph glyph-name="minus" unicode="&#x2212;" horiz-adv-x="714" 
d="M57 262v74h600v-74h-600z" />
    <glyph glyph-name="multiply" unicode="&#xd7;" horiz-adv-x="741" 
d="M634 499l-189 -189l189 -189l-60 -60l-189 189l-190 -189l-60 60l189 189l-189 189l60 60l190 -189l189 189z" />
    <glyph glyph-name="notequal" unicode="&#x2260;" horiz-adv-x="714" 
d="M657 326h-207l-105 -122h312v-72h-373l-108 -126h-66l108 126h-161v72h222l105 122h-327v72h389l92 108h66l-92 -108h145v-72z" />
    <glyph glyph-name="partialdiff" unicode="&#x2202;" horiz-adv-x="549" 
d="M167 708c188 34 337 -137 335 -380c-1 -183 -110 -324 -251 -324c-165 0 -242 130 -178 300c57 152 188 215 311 169c-36 122 -119 190 -217 156v79zM403 328c0 20 -1 40 -2 59c-98 60 -189 19 -237 -108c-41 -109 0 -202 87 -202c82 0 151 113 152 251z" />
    <glyph glyph-name="percent" unicode="%" horiz-adv-x="780" 
d="M198 425c-82 0 -147 75 -147 167c0 93 65 168 147 168c81 0 146 -75 146 -168c0 -92 -65 -167 -146 -167zM77 0l510 750h115l-509 -750h-116zM198 510c33 0 62 36 62 82c0 47 -29 83 -62 83s-61 -36 -61 -83c0 -46 28 -82 61 -82zM583 -10c-82 0 -147 75 -147 168
c0 92 65 167 147 167c81 0 146 -75 146 -167c0 -93 -65 -168 -146 -168zM582 75c33 0 61 36 61 83c0 46 -28 82 -61 82s-61 -36 -61 -82c0 -47 28 -83 61 -83z" />
    <glyph glyph-name="perthousand" unicode="&#x2030;" horiz-adv-x="1119" 
d="M198 425c-82 0 -147 75 -147 167c0 93 65 168 147 168c81 0 146 -75 146 -168c0 -92 -65 -167 -146 -167zM77 0l510 750h115l-509 -750h-116zM198 510c33 0 62 36 62 82c0 47 -29 83 -62 83s-61 -36 -61 -83c0 -46 28 -82 61 -82zM583 -10c-82 0 -147 75 -147 168
c0 92 65 167 147 167c81 0 146 -75 146 -167c0 -93 -65 -168 -146 -168zM926 -10c-82 0 -147 75 -147 168c0 92 65 167 147 167c81 0 146 -75 146 -167c0 -93 -65 -168 -146 -168zM582 75c33 0 61 36 61 83c0 46 -28 82 -61 82s-61 -36 -61 -82c0 -47 28 -83 61 -83zM925 75
c33 0 61 36 61 83c0 46 -28 82 -61 82s-61 -36 -61 -82c0 -47 28 -83 61 -83z" />
    <glyph glyph-name="plus" unicode="+" horiz-adv-x="794" 
d="M355 0v267h-268v86h268v267h85v-267h267v-86h-267v-267h-85z" />
    <glyph glyph-name="plusminus" unicode="&#xb1;" horiz-adv-x="787" 
d="M430 439h310v-72h-310v-180h-72v180h-311v72h311v180h72v-180zM47 0v66h693v-66h-693z" />
    <glyph glyph-name="product" unicode="&#x220f;" horiz-adv-x="750" 
d="M703 703v-79h-60v-744h-78v744h-379v-744h-79v744h-60v79h656z" />
    <glyph glyph-name="radical" unicode="&#x221a;" horiz-adv-x="737" 
d="M248 -78l-113 346h-68v72h120l99 -300l347 725l66 -28l-390 -815h-61z" />
    <glyph glyph-name="summation" unicode="&#x2211;" horiz-adv-x="753" 
d="M87 -118v65l356 345l-356 345v66h579v-85h-439l330 -326l-330 -326h439v-85z" />
    <glyph glyph-name="arrowup" unicode="&#x2191;" horiz-adv-x="513" 
d="M188 0v537l-128 -30l188 243l188 -243l-127 30v-537h-121z" />
    <glyph glyph-name="uni2197" unicode="&#x2197;" horiz-adv-x="545" 
d="M-60 152l380 380l-112 69l305 39l-39 -305l-69 111l-380 -379z" />
    <glyph glyph-name="arrowright" unicode="&#x2192;" horiz-adv-x="850" 
d="M90 413h537l-30 128l243 -188l-243 -188l30 127h-537v121z" />
    <glyph glyph-name="uni2198" unicode="&#x2198;" horiz-adv-x="546" 
d="M-59 598l85 85l380 -379l69 111l39 -305l-305 39l112 69z" />
    <glyph glyph-name="arrowdown" unicode="&#x2193;" horiz-adv-x="496" 
d="M188 750h121v-537l127 30l-188 -243l-188 243l128 -30v537z" />
    <glyph glyph-name="uni2199" unicode="&#x2199;" horiz-adv-x="546" 
d="M605 598l-380 -380l112 -69l-305 -39l39 305l69 -111l380 379z" />
    <glyph glyph-name="arrowleft" unicode="&#x2190;" horiz-adv-x="850" 
d="M760 413v-121h-537l30 -127l-243 188l243 188l-30 -128h537z" />
    <glyph glyph-name="uni2196" unicode="&#x2196;" horiz-adv-x="545" 
d="M605 152l-85 -85l-380 379l-69 -111l-39 305l305 -39l-112 -69z" />
    <glyph glyph-name="arrowboth" unicode="&#x2194;" horiz-adv-x="866" 
d="M181 144l-241 189l243 188l-31 -127l561 -1l-30 127l243 -188l-242 -188l30 128l-562 1z" />
    <glyph glyph-name="arrowupdn" unicode="&#x2195;" horiz-adv-x="496" 
d="M248 -71l-188 242l128 -30v390l-128 -30l188 242l188 -243l-127 30v-388l127 30z" />
    <glyph glyph-name="lozenge" unicode="&#x25ca;" horiz-adv-x="778" 
d="M389 52l-302 301l302 302l301 -301zM390 175l177 179l-177 178l-179 -179z" />
    <glyph glyph-name="uniF8FF" unicode="&#xf8ff;" horiz-adv-x="980" 
d="M490 0c-209 0 -380 171 -380 380c0 210 171 380 380 380c210 0 380 -170 380 -380c0 -209 -170 -380 -380 -380zM490 36c190 0 344 155 344 344c0 190 -154 344 -344 344c-189 0 -344 -154 -344 -344c0 -189 155 -344 344 -344zM689 217c-4 0 -9 2 -12 6l-145 144
c-7 8 -7 19 0 26l145 145c7 7 18 7 25 0s7 -19 0 -26l-132 -132l132 -132c7 -7 6 -17 0 -25c-3 -4 -8 -6 -13 -6zM291 217c-10 0 -18 8 -18 18v290c0 10 8 18 18 18s18 -8 18 -18v-290c0 -10 -8 -18 -18 -18zM490 217c-10 0 -18 8 -18 18v290c0 10 8 18 18 18s18 -8 18 -18
v-290c0 -10 -8 -18 -18 -18zM345 362c-10 0 -18 8 -18 18s8 18 18 18h91c10 0 18 -8 18 -18s-8 -18 -18 -18h-91z" />
    <glyph glyph-name="bar" unicode="|" horiz-adv-x="294" 
d="M111 -150v900h71v-900h-71z" />
    <glyph glyph-name="brokenbar" unicode="&#xa6;" horiz-adv-x="294" 
d="M111 390v360h71v-360h-71zM111 -150v360h71v-360h-71z" />
    <glyph glyph-name="at" unicode="@" horiz-adv-x="608" 
d="M521 149h-67v29c-23 -24 -62 -40 -94 -40c-70 0 -126 55 -126 126c0 70 56 125 125 125c35 0 73 -18 95 -43v20c0 64 -59 115 -134 115c-109 0 -196 -91 -196 -205c0 -118 97 -209 218 -209h179v-67h-179c-160 0 -285 121 -285 276c0 152 116 273 263 273
c113 0 201 -80 201 -183v-217zM386 195c31 0 57 17 68 43v52c-11 25 -37 42 -68 42c-42 0 -74 -29 -74 -68c0 -40 32 -69 74 -69z" />
    <glyph glyph-name="ampersand" unicode="&#x26;" horiz-adv-x="728" 
d="M691 62l-71 -71l-98 98l-34 -34c-89 -88 -235 -87 -323 0c-89 89 -88 234 0 322l34 34l-19 19c-36 36 -56 87 -56 137c0 106 87 191 193 191s193 -85 193 -191h-99c0 51 -43 93 -94 93c-52 0 -95 -42 -95 -95c0 -25 10 -47 28 -66l272 -270l98 97l70 -70l-97 -97z
M418 126l33 33l-182 182l-34 -34c-51 -51 -51 -131 0 -181c52 -51 132 -51 183 0z" />
    <glyph glyph-name="paragraph" unicode="&#xb6;" horiz-adv-x="629" 
d="M301 -150v565h-26c-110 0 -178 59 -178 168s68 167 178 167h84v-900h-58zM453 -150v900h59v-900h-59z" />
    <glyph glyph-name="copyright" unicode="&#xa9;" horiz-adv-x="868" 
d="M434 -10c-212 0 -385 173 -385 385s173 385 385 385s385 -173 385 -385s-173 -385 -385 -385zM434 52c181 0 324 143 324 323s-143 323 -324 323c-180 0 -323 -143 -323 -323s143 -323 323 -323zM451 180c-111 0 -200 85 -200 191c0 107 89 192 200 192
c35 0 66 -8 95 -25v-70l-4 -1c-23 19 -57 31 -88 31c-71 0 -130 -49 -130 -127c0 -76 59 -126 130 -126c30 0 65 11 87 29h5v-69c-28 -16 -60 -25 -95 -25z" />
    <glyph glyph-name="registered" unicode="&#xae;" horiz-adv-x="868" 
d="M434 760c212 0 385 -173 385 -385s-173 -385 -385 -385s-385 173 -385 385s173 385 385 385zM434 52c181 0 324 143 324 323s-143 323 -324 323c-180 0 -323 -143 -323 -323s143 -323 323 -323zM574 456c0 -48 -30 -89 -72 -106l92 -169h-64l-90 161h-53v-161h-57v388
h129c64 0 115 -50 115 -113zM387 512v-113h72c32 0 57 25 57 57c0 31 -25 56 -57 56h-72z" />
    <glyph glyph-name="section" unicode="&#xa7;" horiz-adv-x="628" 
d="M529 254c24 -23 39 -52 39 -90c0 -97 -117 -162 -249 -162c-117 0 -217 51 -256 117l70 42c25 -46 94 -82 190 -82c86 0 162 30 162 86c0 123 -389 67 -389 262c0 36 13 66 40 91c-24 22 -39 50 -39 87c0 102 109 155 219 155c83 0 163 -30 208 -74l-57 -47
c-32 30 -86 49 -146 49c-73 0 -141 -28 -141 -79c0 -123 389 -67 389 -265c0 -34 -15 -65 -40 -90zM180 430c0 -82 166 -86 280 -135c17 14 25 31 25 50c0 80 -166 85 -281 132c-15 -12 -24 -28 -24 -47z" />
    <glyph glyph-name="trademark" unicode="&#x2122;" horiz-adv-x="725" 
d="M10 701v49h243v-49h-94v-302h-56v302h-93zM606 750h59v-351h-55v263l-128 -189l-127 189v-263h-56v351h60l123 -184z" />
    <glyph glyph-name="degree" unicode="&#xb0;" horiz-adv-x="482" 
d="M241 492c-74 0 -134 60 -134 134s60 134 134 134s134 -60 134 -134s-60 -134 -134 -134zM241 548c44 0 78 34 78 78s-34 78 -78 78s-78 -34 -78 -78s34 -78 78 -78z" />
    <glyph glyph-name="estimated" unicode="&#x212e;" horiz-adv-x="928" 
d="M463 -9c-236 0 -427 172 -427 383c0 214 191 386 427 386c237 0 428 -172 428 -386v-10h-692c-4 0 -6 -1 -6 -4v-210c0 -9 4 -17 9 -24c67 -69 160 -114 262 -114c111 0 209 50 276 128h61c-76 -90 -200 -149 -338 -149zM199 385h531c3 0 4 4 4 7v210c0 9 -3 19 -10 25
c-67 66 -158 110 -260 110c-101 0 -193 -45 -261 -113c-6 -7 -10 -16 -10 -26v-206c0 -3 2 -7 6 -7z" />
    <glyph glyph-name="uni2113" unicode="&#x2113;" horiz-adv-x="609" 
d="M334 -6c-132 0 -192 87 -204 184v11c-21 -14 -43 -32 -66 -48l-31 59c33 26 66 48 95 73v279c0 198 95 268 195 268c110 0 158 -86 158 -182c0 -134 -97 -257 -248 -388l1 -31c2 -94 61 -139 124 -139c73 0 133 57 164 110l49 -47c-59 -104 -144 -149 -237 -149zM233 347
c97 97 171 195 171 289c0 63 -21 109 -79 109c-41 0 -92 -42 -92 -179v-219z" />
    <glyph glyph-name="asciicircum" unicode="^" horiz-adv-x="711" 
d="M683 198h-94l-234 465l-234 -465h-94l278 552h100z" />
    <glyph glyph-name="dagger" unicode="&#x2020;" horiz-adv-x="665" 
d="M537 483v-72h-170v-581h-73v581h-167v72h167v187h73v-187h170z" />
    <glyph glyph-name="daggerdbl" unicode="&#x2021;" horiz-adv-x="665" 
d="M537 411h-170v-316h170v-72h-170v-193h-73v193h-167v72h167v316h-167v72h167v187h73v-187h170v-72z" />
    <glyph glyph-name="uni0308" unicode="&#x308;" 
d="M-326 590c-37 0 -68 30 -68 67c0 38 31 68 68 68s68 -30 68 -68c0 -37 -31 -67 -68 -67zM-126 590c-37 0 -68 30 -68 67c0 38 31 68 68 68s67 -30 67 -68c0 -37 -30 -67 -67 -67z" />
    <glyph glyph-name="uni0307" unicode="&#x307;" 
d="M-155 590c-37 0 -68 30 -68 67c0 38 31 68 68 68s68 -30 68 -68c0 -37 -31 -67 -68 -67z" />
    <glyph glyph-name="gravecomb" unicode="&#x300;" 
d="M-114 590l-114 160h113l87 -160h-86z" />
    <glyph glyph-name="acutecomb" unicode="&#x301;" 
d="M-228 590l87 160h113l-113 -160h-87z" />
    <glyph glyph-name="uni030B" unicode="&#x30b;" 
d="M-463 574l144 176h106l-170 -176h-80zM-277 574l144 176h106l-170 -176h-80z" />
    <glyph glyph-name="uni0302" unicode="&#x302;" 
d="M-351 579l103 171h117l104 -171h-88l-74 120l-75 -120h-87z" />
    <glyph glyph-name="uni030C" unicode="&#x30c;" 
d="M-248 579l-103 171h84l78 -119l78 119h84l-104 -171h-117z" />
    <glyph glyph-name="uni0306" unicode="&#x306;" 
d="M-342 562c-99 0 -171 58 -171 162h66c0 -51 43 -96 105 -96c64 0 107 45 107 96h65c0 -104 -71 -162 -172 -162z" />
    <glyph glyph-name="uni030A" unicode="&#x30a;" 
d="M-92 556c-60 0 -109 49 -109 108s49 108 109 108c59 0 107 -49 107 -108s-48 -108 -107 -108zM-92 604c33 0 59 25 59 60c0 33 -26 61 -59 61s-59 -28 -59 -61c0 -35 26 -60 59 -60z" />
    <glyph glyph-name="tildecomb" unicode="&#x303;" 
d="M-127 608c-39 0 -70 17 -96 56c-11 17 -22 25 -38 25c-28 0 -42 -30 -31 -72h-68c-14 81 31 138 96 138c43 0 75 -23 97 -56c10 -17 21 -25 38 -25c28 0 41 29 31 72h67c15 -79 -27 -138 -96 -138z" />
    <glyph glyph-name="uni0304" unicode="&#x304;" 
d="M-337 594v72h310v-72h-310z" />
    <glyph glyph-name="uni0312" unicode="&#x312;" 
d="M-96 498c-38 0 -68 33 -68 75c-1 102 82 186 126 186v-39c-48 -19 -70 -86 -58 -86c38 0 68 -29 68 -67s-30 -69 -68 -69z" />
    <glyph glyph-name="dotbelowcomb" unicode="&#x323;" 
d="M-95 -250c-37 0 -68 31 -68 68s31 68 68 68s68 -31 68 -68s-31 -68 -68 -68z" />
    <glyph glyph-name="uni0326" unicode="&#x326;" 
d="M-153 -135v40c58 1 70 85 57 85c-39 0 -67 28 -67 68c0 39 28 68 68 68c39 0 68 -31 68 -75c0 -102 -47 -190 -126 -186z" />
    <glyph glyph-name="uni0327" unicode="&#x327;" 
d="M-132 -260c-47 0 -98 30 -116 68l50 19c13 -19 42 -34 66 -34c29 0 51 23 51 52c0 43 -41 61 -93 39l-43 27l47 89h54l-33 -64c68 13 122 -28 122 -91c0 -58 -46 -105 -105 -105z" />
    <glyph glyph-name="uni0328" unicode="&#x328;" 
d="M-174 -259c-69 4 -120 40 -120 108c0 74 59 134 160 168l54 -17c-70 0 -138 -73 -138 -142c0 -34 22 -60 63 -60c36 0 72 20 92 49l36 -51c-40 -40 -93 -58 -147 -55z" />
    <glyph glyph-name="uni0335" unicode="&#x335;" 
d="M-482 218v78h315v-78h-315z" />
    <glyph glyph-name="uni0336" unicode="&#x336;" 
d="M-755 237v46h727v-46h-727z" />
    <glyph glyph-name="uni0337" unicode="&#x337;" 
d="M-458 108l275 292h85l-282 -292h-78z" />
    <glyph glyph-name="uni0338" unicode="&#x338;" 
d="M-621 -21l527 793h77l-527 -793h-77z" />
    <glyph glyph-name="acute" unicode="&#xb4;" horiz-adv-x="46" 
d="M27 590l87 160h113l-113 -160h-87z" />
    <glyph glyph-name="breve" unicode="&#x2d8;" horiz-adv-x="46" 
d="M292 562c-99 0 -171 58 -171 162h66c0 -51 43 -96 105 -96c64 0 107 45 107 96h65c0 -104 -71 -162 -172 -162z" />
    <glyph glyph-name="caron" unicode="&#x2c7;" horiz-adv-x="46" 
d="M130 579l-103 171h84l78 -119l78 119h84l-104 -171h-117z" />
    <glyph glyph-name="cedilla" unicode="&#xb8;" horiz-adv-x="46" 
d="M143 -260c-47 0 -98 30 -116 68l50 19c13 -19 42 -34 66 -34c29 0 51 23 51 52c0 43 -41 61 -93 39l-43 27l47 89h54l-33 -64c68 13 122 -28 122 -91c0 -58 -46 -105 -105 -105z" />
    <glyph glyph-name="circumflex" unicode="&#x2c6;" horiz-adv-x="46" 
d="M27 579l103 171h117l104 -171h-88l-74 120l-75 -120h-87z" />
    <glyph glyph-name="dieresis" unicode="&#xa8;" horiz-adv-x="46" 
d="M127 590c-37 0 -68 30 -68 67c0 38 31 68 68 68s68 -30 68 -68c0 -37 -31 -67 -68 -67zM327 590c-37 0 -68 30 -68 67c0 38 31 68 68 68s67 -30 67 -68c0 -37 -30 -67 -67 -67z" />
    <glyph glyph-name="dotaccent" unicode="&#x2d9;" horiz-adv-x="46" 
d="M155 590c-37 0 -68 30 -68 67c0 38 31 68 68 68s68 -30 68 -68c0 -37 -31 -67 -68 -67z" />
    <glyph glyph-name="grave" unicode="`" horiz-adv-x="46" 
d="M141 590l-114 160h113l87 -160h-86z" />
    <glyph glyph-name="hungarumlaut" unicode="&#x2dd;" horiz-adv-x="46" 
d="M27 574l144 176h106l-170 -176h-80zM213 574l144 176h106l-170 -176h-80z" />
    <glyph glyph-name="macron" unicode="&#xaf;" horiz-adv-x="54" 
d="M27 594v72h310v-72h-310z" />
    <glyph glyph-name="ogonek" unicode="&#x2db;" horiz-adv-x="46" 
d="M131 -259c-69 4 -120 40 -120 108c0 74 59 134 160 168l54 -17c-70 0 -138 -73 -138 -142c0 -34 22 -60 63 -60c36 0 72 20 92 49l36 -51c-40 -40 -93 -58 -147 -55z" />
    <glyph glyph-name="ring" unicode="&#x2da;" horiz-adv-x="46" 
d="M94 556c-60 0 -109 49 -109 108s49 108 109 108c59 0 107 -49 107 -108s-48 -108 -107 -108zM94 604c33 0 59 25 59 60c0 33 -26 61 -59 61s-59 -28 -59 -61c0 -35 26 -60 59 -60z" />
    <glyph glyph-name="tilde" unicode="&#x2dc;" horiz-adv-x="47" 
d="M262 608c-39 0 -70 17 -96 56c-11 17 -22 25 -38 25c-28 0 -42 -30 -31 -72h-68c-14 81 31 138 96 138c43 0 75 -23 97 -56c10 -17 21 -25 38 -25c28 0 41 29 31 72h67c15 -79 -27 -138 -96 -138z" />
    <glyph glyph-name="arrow" horiz-adv-x="496" 
d="M188 0v537l-128 -30l188 243l188 -243l-127 30v-537h-121z" />
    </font>
</defs>
</svg>
