<?xml version="1.0" encoding="UTF-8"?>
<svg width="100pt" height="100pt" version="1.1" viewBox="0 0 100 100" xmlns="http://www.w3.org/2000/svg">
 <path d="m65.902 22h0.003906 0.023438c1.4805 0.015625 2.8945 0.91406 3.5391 2.2695 0.54688 1.1562 0.5 2.5781-0.12109 3.6953-0.074218 0.13281-0.15625 0.25781-0.24609 0.38281 0.003907 0.019532 0.007813 0.046875 0.011719 0.074219 1.4766 13.656 2.9453 27.32 4.4609 40.965 0.11719 1.082 0.23828 2.168 0.36328 3.2461 0.125 1.1289 0.11719 2.3164-0.55859 3.2734-0.45703 0.64062-1.2266 1.0352-2.0117 1.043-0.34375 0.007812-0.68359-0.054688-1.0078-0.16016l-4.2891-1.3242-5.543 2.4102-0.003906 0.003906c-0.023438 0.007813-0.042969 0.015625-0.066407 0.027344-0.007812 0-0.015625 0.003906-0.023437 0.007812-0.19922 0.070313-0.25781 0.058594-0.46484 0.078126-9.5742 0-19.145 0.019531-28.719 0-1.7617-0.007813-3.4844-0.97266-4.4102-2.5-0.54297-0.89453-0.80859-1.9531-0.75391-3l2.3008-42.828c-1.1523-0.52344-2.0938-1.6211-2.3281-2.9609-0.26953-1.5352 0.42188-3.2031 1.7539-4.0664 0.63281-0.41406 1.3828-0.63281 2.1328-0.63672zm-34.695 7.9961c-0.76562 14.227-1.6445 28.441-2.2969 42.672-0.03125 0.75391 0.32031 1.5234 0.91797 1.9844 0.41016 0.31641 0.91797 0.49219 1.4336 0.49219h27.363l2.4297-45.148h-29.848zm35.23 0h-2.5508l-2.3828 44.355 3.9219-1.707c0.21484-0.085937 0.44141-0.125 0.67578-0.11328 0.070313 0.007812 0.085938 0.007812 0.15234 0.023438 0.066406 0.011718 0.082032 0.015624 0.14844 0.035156l4.7266 1.4609c0.082032-0.45703 0.011719-0.94141-0.039062-1.4141-0.61719-5.3984-1.1953-10.785-1.7812-16.172-0.94531-8.6875-1.8867-17.379-2.8281-26.07zm-21.32 19.301c2.3164 0 4.1992 1.8945 4.1992 4.2227 0 4.9648-1.8828 2.3281-4.1992 2.3281-2.3164 0-4.1992 2.5664-4.1992-2.3281 0-2.3281 1.8828-4.2227 4.1992-4.2227zm5.6602-2.332c0.76953 0.20703 0.98047 1.918 0.77344 2.6914-0.20312 0.76953-0.99609 1.2305-1.7617 1.0234-0.76562-0.20703-1.2227-1-1.0195-1.7734 0.20703-0.77344 1.2422-2.1484 2.0078-1.9414zm-11.41-0.074219c0.70703-0.1875 1.6758 1.1484 1.8633 1.8555 0.1875 0.71094-0.23047 1.4375-0.93359 1.6289s-1.4297-0.23047-1.6172-0.9375c-0.1875-0.71094-0.015626-2.3555 0.6875-2.5469zm7.7305-2.1641c0.73047 0 1.3242 1.543 1.3242 2.2773s-0.59375 1.3281-1.3242 1.3281c-0.72656 0-1.3203-0.59375-1.3203-1.3281s0.59375-2.2773 1.3203-2.2773zm-3.9609 0c0.72656 0 1.3203 1.543 1.3203 2.2773s-0.59375 1.3281-1.3203 1.3281c-0.73047 0-1.3203-0.59375-1.3203-1.3281s0.58984-2.2773 1.3203-2.2773zm-13.199-19.879h-0.046875c-0.64062 0.035156-1.1836 0.69922-1.0391 1.3945 0.10547 0.50391 0.57422 0.90625 1.1016 0.91016h29.57c-0.21484-0.74609-0.20703-1.5547 0.011718-2.3047zm35.961 0h-2.625-0.027344c-0.42969 0.023438-0.82812 0.32422-0.98828 0.72656-0.25781 0.66797 0.22656 1.5391 0.99609 1.5742 0.015625 0 0.035156 0.003906 0.050782 0.003906h2.6133c0.003906-0.003906 0.007812-0.003906 0.015625-0.003906 0.5-0.011719 0.96484-0.41016 1.0703-0.91406 0.12891-0.64062-0.36328-1.3555-1.0508-1.3867h-0.054687z" fill-rule="evenodd"/>
</svg>
