<svg xmlns="http://www.w3.org/2000/svg" xmlns:xlink="http://www.w3.org/1999/xlink" width="100" height="100" viewBox="0 0 100 100"><g><g transform="translate(50 50) scale(0.69 0.69) rotate(0) translate(-50 -50)" style="fill:#000000"><svg fill="#000000" xmlns="http://www.w3.org/2000/svg" xmlns:xlink="http://www.w3.org/1999/xlink" version="1.1" x="0px" y="0px" viewBox="0 0 50 50" enable-background="new 0 0 50 50" xml:space="preserve"><path d="M22.769,12.445c0.794,4.561-0.756,8.639-3.471,9.112c-2.709,0.476-5.55-2.841-6.343-7.401  c-0.794-4.561,0.756-8.64,3.464-9.112C19.127,4.575,21.975,7.885,22.769,12.445z M6.668,16.83c-1.991,0.841-2.457,4.236-1.04,7.584  c1.417,3.348,4.176,5.379,6.167,4.536c1.991-0.841,2.457-4.236,1.033-7.584C11.417,18.017,8.659,15.985,6.668,16.83z M25.779,12.445  c-0.793,4.561,0.756,8.639,3.465,9.112c2.709,0.476,5.556-2.841,6.35-7.401c0.794-4.561-0.756-8.64-3.465-9.112  C29.414,4.575,26.573,7.885,25.779,12.445z M35.713,21.365c-1.417,3.348-0.951,6.744,1.04,7.584c1.984,0.844,4.749-1.188,6.16-4.536  c1.424-3.348,0.958-6.743-1.033-7.584C39.89,15.985,37.131,18.017,35.713,21.365z M24.293,21.601v0.006  c0.044,0,0.082-0.006,0.126-0.006H24.293z M24.129,21.601c0.038,0,0.082,0.006,0.126,0.006v-0.006H24.129z M37.219,33.52  c-3.111-5.861-5.707-11.84-12.926-11.912l0,0c-0.006,0-0.013,0-0.025,0h-0.012l0,0c-7.219,0.072-9.821,6.051-12.932,11.912  c-3.131,5.896,0.522,9.398,2.979,10.658c2.463,1.26,5.719,0.926,7.534,0c1.562-0.794,2.255-0.63,2.419-0.573v0.024  c0,0,0.006-0.006,0.012-0.012c0.013,0.006,0.025,0.012,0.025,0.012v-0.024c0.164-0.057,0.856-0.221,2.419,0.573  c1.814,0.926,5.07,1.26,7.527,0C36.702,42.918,40.355,39.415,37.219,33.52z"></path></svg></g></g></svg>
