<svg xmlns="http://www.w3.org/2000/svg" width="40.425" height="36.084" viewBox="0 0 40.425 36.084"><defs><style>.a{fill:#f29854;}</style></defs><g transform="translate(-5.004 -9.837)"><path class="a" d="M42.472,47.992c-.747-.325-1.765-1.807-2.476-3.606-.477-1.209-1.9-4.783-5.752-5.055a1.183,1.183,0,0,0-.239-.026c-.04,0-.074.005-.114.007s-.074-.007-.114-.007a1.183,1.183,0,0,0-.239.026c-3.853.272-5.274,3.846-5.752,5.055-.709,1.8-1.728,3.281-2.476,3.606a7.865,7.865,0,0,0-4.662,8.186,6.742,6.742,0,0,0,5.961,5.888,7.684,7.684,0,0,0,1.151.086,7.972,7.972,0,0,0,3.085-.626c.432-.181.823-.391,1.2-.595a5.247,5.247,0,0,1,1.846-.728,5.246,5.246,0,0,1,1.846.728,13.37,13.37,0,0,0,1.2.595,7.953,7.953,0,0,0,3.085.626,7.667,7.667,0,0,0,1.151-.086,6.744,6.744,0,0,0,5.961-5.888,7.862,7.862,0,0,0-4.66-8.186Z" transform="translate(-8.581 -16.231)"/><path class="a" d="M15.334,39.3c-.449-3.106-2.764-5.448-5.385-5.448a4.437,4.437,0,0,0-.63.046c-2.827.409-4.729,3.5-4.237,6.885.449,3.106,2.764,5.446,5.385,5.446a4.48,4.48,0,0,0,.632-.046C13.921,45.778,15.823,42.69,15.334,39.3Z" transform="translate(0 -13.229)"/><path class="a" d="M29.055,22.251c2.857,0,5.18-2.785,5.18-6.206s-2.323-6.208-5.18-6.208-5.18,2.785-5.18,6.206S26.2,22.251,29.055,22.251Z" transform="translate(-10.394)"/><path class="a" d="M81.128,36a4.769,4.769,0,0,0-3.608-2.162c-2.858-.2-5.359,2.441-5.588,5.841a6.889,6.889,0,0,0,1.139,4.383,4.769,4.769,0,0,0,3.608,2.162c.1.007.2.011.3.011,2.743,0,5.067-2.571,5.29-5.852A6.886,6.886,0,0,0,81.128,36Z" transform="translate(-36.855 -13.213)"/><path class="a" d="M58.286,22.251c2.857,0,5.18-2.785,5.18-6.206s-2.325-6.208-5.18-6.208-5.18,2.785-5.18,6.206S55.429,22.251,58.286,22.251Z" transform="translate(-26.495)"/></g></svg>